<svg width="18" height="18" viewBox="0 0 18 18" fill="none" xmlns="http://www.w3.org/2000/svg">
<path d="M1.983 7.95794C1.63119 7.95892 1.28684 8.05949 0.989796 8.24802C0.692753 8.43655 0.455157 8.70532 0.304494 9.02325C0.153832 9.34117 0.0962603 9.69526 0.138441 10.0445C0.180621 10.3938 0.320829 10.724 0.542845 10.9969L5.27569 16.7947C5.44444 17.0042 5.66075 17.1705 5.90665 17.2796C6.15255 17.3888 6.42095 17.4377 6.68954 17.4222C7.26401 17.3914 7.78265 17.0841 8.11332 16.5788L17.9446 0.745494C17.9462 0.742867 17.9479 0.740241 17.9497 0.737654C18.0419 0.596017 18.012 0.315332 17.8216 0.139001C17.7693 0.090579 17.7076 0.0533772 17.6404 0.029687C17.5732 0.00599668 17.5018 -0.00368046 17.4307 0.00125174C17.3596 0.00618393 17.2902 0.025621 17.2269 0.0583658C17.1636 0.0911105 17.1077 0.13647 17.0626 0.19165C17.059 0.195988 17.0554 0.200261 17.0517 0.204469L7.13664 11.407C7.09891 11.4496 7.05309 11.4843 7.00184 11.5091C6.95058 11.5338 6.89492 11.5482 6.83807 11.5513C6.78123 11.5543 6.72434 11.5461 6.67071 11.527C6.61708 11.5079 6.56779 11.4783 6.52568 11.44L3.23507 8.44553C2.89331 8.13224 2.44663 7.95829 1.983 7.95794Z" fill="#868A8A"/>
</svg>
