<svg width="22" height="17" viewBox="0 0 22 17" fill="none" xmlns="http://www.w3.org/2000/svg">
<path d="M0.450195 1.31398C3.41377 3.82381 8.61393 8.23936 10.1423 9.61613C10.3475 9.80195 10.5676 9.89642 10.796 9.89642C11.024 9.89642 11.2437 9.80284 11.4484 9.61791C12.9781 8.23978 18.1783 3.82381 21.1419 1.31398C21.3264 1.15802 21.3545 0.883886 21.2052 0.693217C20.8598 0.252623 20.345 0 19.7932 0H1.79888C1.24712 0 0.732213 0.252623 0.386933 0.693259C0.237552 0.883887 0.265683 1.15802 0.450195 1.31398Z" fill="#282B37"/>
<path d="M21.3314 2.67426C21.172 2.60004 20.9844 2.62593 20.8517 2.7393C18.9108 4.38451 16.3536 6.55825 14.425 8.21709C14.3235 8.30409 14.2664 8.43192 14.2686 8.56591C14.2708 8.69948 14.3328 8.82554 14.4373 8.909C16.2293 10.3442 18.9297 12.3185 20.8798 13.7217C20.9576 13.7779 21.0498 13.8065 21.1425 13.8065C21.2128 13.8065 21.2831 13.7902 21.3477 13.7568C21.498 13.68 21.5924 13.5253 21.5924 13.3566V3.08238C21.5924 2.90711 21.4904 2.74765 21.3314 2.67426Z" fill="#282B37"/>
<path d="M0.712575 13.7212C2.66313 12.318 5.36405 10.3438 7.15557 8.90849C7.26012 8.82503 7.32207 8.69893 7.32426 8.5654C7.32646 8.43141 7.26935 8.30358 7.16788 8.21658C5.23926 6.55774 2.68156 4.384 0.740705 2.73879C0.60714 2.62542 0.419127 2.60041 0.260974 2.67375C0.101935 2.74714 0 2.9066 0 3.08187V13.3561C0 13.5248 0.0944702 13.6795 0.244695 13.7564C0.309263 13.7898 0.379568 13.806 0.449872 13.806C0.542571 13.806 0.634806 13.7775 0.712575 13.7212Z" fill="#282B37"/>
<path d="M21.0414 14.9454C19.1581 13.598 15.6888 11.086 13.6179 9.40518C13.4492 9.26769 13.2049 9.27208 13.0389 9.4153C12.6325 9.76982 12.2925 10.0686 12.0513 10.2856C11.3106 10.9542 10.2826 10.9542 9.54015 10.2847C9.29984 10.0681 8.95983 9.76847 8.55344 9.41526C8.38871 9.27115 8.14402 9.26677 7.97485 9.40514C5.91094 11.0803 2.43772 13.5953 0.551314 14.9453C0.446301 15.0209 0.378653 15.1373 0.365495 15.266C0.352758 15.3948 0.395354 15.5226 0.483667 15.6175C0.824181 15.9844 1.30391 16.1948 1.79904 16.1948H19.7934C20.2885 16.1948 20.7678 15.9844 21.1091 15.6175C21.197 15.5231 21.24 15.3952 21.2273 15.2665C21.2141 15.1378 21.1464 15.021 21.0414 14.9454Z" fill="#282B37"/>
</svg>
