<svg width="22" height="12" viewBox="0 0 22 12" fill="none" xmlns="http://www.w3.org/2000/svg">
<path d="M21.9065 5.66301C19.6621 2.16742 15.4814 0 11 0C6.51859 0 2.33788 2.16742 0.0935047 5.66301C-0.0311682 5.86785 -0.0311682 6.11896 0.0935047 6.3238C2.33788 9.826 6.51859 12 11 12C15.4814 12 19.6621 9.826 21.9065 6.3238C22.0312 6.11896 22.0312 5.86785 21.9065 5.66301ZM11 10.13C8.46957 10.13 6.4159 8.27976 6.4159 6.00002C6.4159 3.72027 8.46957 1.87006 11 1.87006C13.5304 1.87006 15.5841 3.72027 15.5841 6.00002C15.5841 8.27976 13.5304 10.13 11 10.13Z" fill="#D3D9DD"/>
<path d="M11 8.80839C12.7216 8.80839 14.1172 7.55104 14.1172 6.00002C14.1172 4.449 12.7216 3.19165 11 3.19165C9.27842 3.19165 7.88281 4.449 7.88281 6.00002C7.88281 7.55104 9.27842 8.80839 11 8.80839Z" fill="#D3D9DD"/>
</svg>
