<svg width="10" height="18" viewBox="0 0 10 18" fill="none" xmlns="http://www.w3.org/2000/svg">
<path d="M1.24686 9.71553H3.08383V17.3559C3.08383 17.5067 3.20481 17.6289 3.35412 17.6289H6.46878C6.61809 17.6289 6.73907 17.5067 6.73907 17.3559V9.75152H8.85083C8.98814 9.75152 9.10366 9.64742 9.11934 9.50963L9.44007 6.69684C9.44888 6.61945 9.42461 6.54195 9.37336 6.4839C9.32206 6.42579 9.24865 6.39253 9.17161 6.39253H6.73918V4.62933C6.73918 4.09782 7.02245 3.82829 7.5812 3.82829C7.66083 3.82829 9.17161 3.82829 9.17161 3.82829C9.32092 3.82829 9.44191 3.70601 9.44191 3.55521V0.973339C9.44191 0.822492 9.32092 0.700263 9.17161 0.700263H6.9798C6.96434 0.699498 6.93001 0.698242 6.87941 0.698242C6.49911 0.698242 5.17721 0.773666 4.133 1.74418C2.97604 2.81966 3.13686 4.10737 3.1753 4.33064V6.39247H1.24686C1.09755 6.39247 0.976562 6.5147 0.976562 6.66555V9.4424C0.976562 9.59325 1.09755 9.71553 1.24686 9.71553Z" fill="#FF9500"/>
</svg>
