<svg width="25" height="25" viewBox="0 0 25 25" fill="none" xmlns="http://www.w3.org/2000/svg">
<path fill-rule="evenodd" clip-rule="evenodd" d="M18.7112 24.8012H6.59122C6.1807 24.8012 5.77965 24.7602 5.39188 24.6821L5.35942 24.6755C3.20827 24.2301 1.47266 22.6416 0.815273 20.5736L0.806704 20.5464C0.62772 19.9739 0.53125 19.3651 0.53125 18.7339V16.9812H0.545736V8.35217H0.560297V6.59942C0.560297 3.67212 2.6353 1.22626 5.39188 0.657151L5.42911 0.649567C5.81431 0.572588 6.21263 0.532166 6.62027 0.532166H18.7403C21.4445 0.532166 23.7373 2.30934 24.5162 4.75975L24.5248 4.78698C24.7038 5.35942 24.8003 5.9682 24.8003 6.59942V8.35217H24.7858V16.9812H24.7712V18.7339C24.7712 22.0824 22.0561 24.8009 18.7112 24.8012Z" fill="#00BBD3"/>
<path fill-rule="evenodd" clip-rule="evenodd" d="M3.85641 4.63429C4.06725 4.63429 4.18328 4.77763 4.14915 4.99605C4.11654 5.19854 3.95804 5.33278 3.7472 5.3343C3.68426 5.3343 3.67212 5.33809 3.69411 5.35098C3.72293 5.36766 3.75782 5.42607 3.77678 5.49053C3.7874 5.5239 3.78436 5.52541 3.73127 5.51631C3.69942 5.51175 3.67439 5.51024 3.67439 5.51403C3.67439 5.51782 3.6888 5.54969 3.70625 5.58457C3.72369 5.61946 3.7381 5.67255 3.7381 5.70137V5.75521L3.69108 5.73094C3.6653 5.71729 3.62434 5.70591 3.60083 5.70591C3.56215 5.70591 3.55987 5.70971 3.57201 5.75066C3.59628 5.82878 3.58642 6.00018 3.55457 6.06237C3.49541 6.17613 3.43246 6.23831 3.3187 6.29595C3.16323 6.37482 3.15034 6.37104 3.21708 6.26562C3.38241 6.00397 3.3953 5.72411 3.2641 5.21142C3.18674 4.90958 3.17991 4.70709 3.24286 4.57285C3.26561 4.52356 3.31795 4.4462 3.35814 4.40069L3.43246 4.31804L3.368 4.28845C3.33236 4.27252 3.28609 4.23764 3.2641 4.21261C3.2277 4.16862 3.22693 4.16332 3.25044 4.12692C3.27775 4.08596 3.39227 4.02225 3.43929 4.02225C3.45825 4.02225 3.43474 3.99192 3.37255 3.93276C3.23072 3.8008 3.20039 3.72192 3.20266 3.48757C3.20342 3.32375 3.21177 3.27144 3.27016 3.04695C3.3862 2.60328 3.37937 2.43794 3.23224 2.12927L3.1602 1.97759L3.21859 1.9867C3.46128 2.02689 3.65771 2.31355 3.59628 2.5388L3.57959 2.60024L3.63117 2.59342C3.65923 2.58887 3.69487 2.58053 3.71004 2.5737C3.75176 2.5555 3.7472 2.62299 3.69942 2.71703L3.66074 2.79439L3.73203 2.78908C3.78739 2.78453 3.80257 2.78832 3.80257 2.80804C3.80257 2.8361 3.76692 2.89374 3.7108 2.95592L3.67136 2.9984L3.76465 2.99764C3.93225 2.99612 4.07862 3.09396 4.13019 3.2426C4.21969 3.49667 4.0407 3.74771 3.82911 3.66656C3.78133 3.64836 3.76616 3.67339 3.78057 3.74696C3.79195 3.80156 3.7783 3.80686 3.72597 3.77045C3.69942 3.75149 3.69032 3.72875 3.69032 3.68248C3.69032 3.62712 3.68501 3.61878 3.64633 3.60968C3.62206 3.60437 3.58793 3.58921 3.57125 3.57631C3.54243 3.55432 3.54168 3.55129 3.56822 3.52247C3.58339 3.50503 3.61676 3.48682 3.64254 3.48227C3.68426 3.47317 3.68881 3.46711 3.68046 3.42615C3.67364 3.39126 3.68198 3.36775 3.71459 3.32907C3.76919 3.26233 3.78133 3.26384 3.77375 3.33361C3.76465 3.41021 3.80484 3.47164 3.86399 3.47164C3.92846 3.47164 3.96487 3.43827 3.96638 3.37684C3.97094 3.22061 3.76161 3.14629 3.60765 3.24944C3.50147 3.32073 3.45218 3.5179 3.50451 3.65745C3.56063 3.80458 3.71004 3.88497 3.92239 3.88345C4.15598 3.88118 4.28339 3.74544 4.26367 3.52171C4.2523 3.39961 4.19845 3.24413 4.04601 2.89603C3.89054 2.54185 3.84352 2.39471 3.85489 2.29611C3.88068 2.06404 4.14233 1.95484 4.38275 2.07543L4.47603 2.12168L4.56931 2.07543C4.80973 1.95484 5.07138 2.06404 5.09716 2.29611C5.10854 2.39471 5.06152 2.54185 4.90604 2.89603C4.7536 3.24413 4.69976 3.39961 4.68838 3.52171C4.66866 3.74544 4.79607 3.88118 5.0289 3.88345C5.24202 3.88497 5.39142 3.80458 5.44755 3.65745C5.49988 3.51715 5.45058 3.323 5.34289 3.24944C5.19196 3.14554 4.98113 3.22137 4.98568 3.37684C4.9872 3.43827 5.0236 3.47164 5.08806 3.47164C5.14722 3.47164 5.18742 3.41021 5.17832 3.33361C5.17073 3.26384 5.18286 3.26233 5.23747 3.32907C5.27008 3.36775 5.27842 3.39126 5.2716 3.42615C5.26326 3.46711 5.26781 3.47317 5.30952 3.48227C5.33531 3.48682 5.36867 3.50503 5.38384 3.52247C5.41039 3.55129 5.40962 3.55432 5.38081 3.57631C5.36412 3.58921 5.32999 3.60437 5.30572 3.60968C5.26705 3.61878 5.26174 3.62712 5.26174 3.68248C5.26174 3.72875 5.25264 3.75149 5.2261 3.77045C5.17377 3.80686 5.16011 3.80156 5.17148 3.74696C5.18589 3.67339 5.17073 3.64836 5.12295 3.66656C4.9106 3.74847 4.73464 3.4997 4.82186 3.24185C4.87116 3.09396 5.01829 2.99612 5.18742 2.99764L5.2807 2.9984L5.24202 2.95592C5.18514 2.89374 5.1495 2.8361 5.1495 2.80728C5.1495 2.78832 5.1639 2.78377 5.21396 2.78832C5.24885 2.79211 5.27766 2.79135 5.27766 2.7868C5.27766 2.78225 5.26326 2.7466 5.24582 2.70792C5.20486 2.61616 5.20258 2.55626 5.24202 2.5737C5.25719 2.58053 5.29284 2.58887 5.3209 2.59342L5.37246 2.60024L5.35578 2.5388C5.29435 2.31355 5.49078 2.02689 5.73347 1.9867L5.79186 1.97759L5.71982 2.12927C5.57345 2.43642 5.56662 2.60554 5.68266 3.04997C5.7403 3.27142 5.74863 3.32375 5.74939 3.48757C5.75091 3.72192 5.72133 3.8008 5.57951 3.93276C5.51732 3.99192 5.49381 4.02225 5.51277 4.02225C5.55979 4.02225 5.67432 4.08596 5.70162 4.12692C5.72513 4.16332 5.72437 4.16862 5.68796 4.21261C5.66597 4.23764 5.61971 4.27252 5.58406 4.28845L5.5196 4.31804L5.59316 4.40069C5.63412 4.4462 5.68645 4.52356 5.7092 4.57285C5.77215 4.70709 5.76532 4.90958 5.68796 5.21142C5.55676 5.72411 5.56965 6.00397 5.73498 6.26562C5.80172 6.37104 5.78883 6.37482 5.63336 6.29595C5.51884 6.23831 5.45665 6.17613 5.3975 6.06237C5.36564 6.00018 5.35578 5.82878 5.38005 5.75066C5.39218 5.70971 5.3899 5.70591 5.35123 5.70591C5.32772 5.70591 5.28677 5.71729 5.26098 5.73094L5.21396 5.75521V5.70137C5.21396 5.67255 5.22837 5.61946 5.24582 5.58457C5.26326 5.54969 5.27766 5.51782 5.27766 5.51403C5.27766 5.51024 5.25188 5.51175 5.22078 5.51631C5.16845 5.52541 5.16466 5.5239 5.17452 5.49053C5.19424 5.42607 5.22912 5.36766 5.25794 5.35098C5.27994 5.33809 5.26781 5.3343 5.20486 5.3343C4.99402 5.33278 4.83551 5.19854 4.8029 4.99605C4.76877 4.77763 4.88481 4.63429 5.09564 4.63429H5.16922L5.16238 4.57893C5.1548 4.51446 5.16238 4.51218 5.21926 4.55769C5.25112 4.58272 5.26174 4.60547 5.2625 4.65021C5.2625 4.70178 5.27008 4.71317 5.31406 4.7344C5.38005 4.7655 5.38005 4.80037 5.31406 4.83146C5.27235 4.85118 5.2625 4.86561 5.2625 4.9058C5.26174 4.93614 5.24733 4.96874 5.22458 4.99074C5.17452 5.03776 5.16542 5.03548 5.16542 4.97253C5.16542 4.86181 5.0638 4.80569 4.99782 4.88001C4.95686 4.92552 4.97279 5.03776 5.02739 5.08478C5.10551 5.15303 5.26932 5.14925 5.34744 5.0772C5.44679 4.98695 5.47864 4.7579 5.41038 4.6267C5.26401 4.3476 4.88178 4.34078 4.72251 4.61533C4.68459 4.68055 4.68004 4.70558 4.68156 4.82161C4.68231 4.89366 4.69369 4.9824 4.70658 5.01805C4.71947 5.05369 4.84689 5.32672 4.98947 5.62477C5.65232 7.01038 5.84116 7.41156 5.87377 7.50636C5.9261 7.65577 5.9261 7.95763 5.87377 8.08959C5.80855 8.25417 5.63867 8.39978 5.45514 8.44756C5.36413 8.47107 5.36337 8.48016 5.45438 8.49912C5.6235 8.53401 5.80855 8.69328 5.87377 8.86013C5.92155 8.98223 5.92534 9.25828 5.88211 9.40542C5.85177 9.50553 5.67734 9.88095 5.05848 11.1771C4.7354 11.852 4.69749 11.94 4.68459 12.0432C4.66412 12.2108 4.68687 12.2987 4.77636 12.3951C4.93562 12.568 5.17604 12.5756 5.33606 12.414C5.42252 12.3268 5.44528 12.2692 5.44528 12.1425C5.44528 12.0075 5.39901 11.9074 5.31028 11.846C5.2625 11.8134 5.23899 11.8088 5.15936 11.8141C5.07745 11.8202 5.05849 11.8278 5.01905 11.8725C4.9379 11.9635 4.96671 12.0909 5.06758 12.0909C5.13508 12.0909 5.15404 12.0682 5.16466 11.9764L5.17376 11.8991L5.21776 11.943C5.24582 11.9711 5.26174 12.0037 5.26174 12.0348C5.26174 12.072 5.27387 12.0894 5.31938 12.1167C5.38612 12.1562 5.3846 12.1812 5.31331 12.2153C5.27159 12.235 5.2625 12.2487 5.2625 12.2919C5.26174 12.3427 5.21623 12.4095 5.18134 12.4095C5.173 12.4095 5.16542 12.3882 5.16542 12.3632C5.16542 12.3177 5.16315 12.3162 5.06228 12.3086C4.9379 12.298 4.8704 12.2555 4.82717 12.16C4.74602 11.9795 4.84689 11.7125 5.0236 11.6412C5.06 11.626 5.13205 11.6131 5.18362 11.6116L5.2769 11.6093L5.23747 11.5669C5.21471 11.5434 5.19045 11.5017 5.1821 11.4728L5.1677 11.422L5.29435 11.4417L5.25416 11.3712C5.21169 11.2954 5.19803 11.1854 5.23368 11.2006C5.29208 11.2248 5.3755 11.2476 5.38232 11.2408C5.38612 11.237 5.38156 11.1922 5.37095 11.1422C5.33758 10.9814 5.40583 10.8054 5.54235 10.7C5.59392 10.6606 5.77669 10.5756 5.78731 10.5863C5.78959 10.5893 5.76684 10.6287 5.7365 10.6742C5.57041 10.9245 5.55752 11.2135 5.69024 11.7375C5.73575 11.9173 5.74787 11.9977 5.74939 12.1258C5.75091 12.2737 5.74712 12.2965 5.70465 12.3829C5.67962 12.4353 5.62729 12.5111 5.58861 12.552C5.54993 12.5922 5.52035 12.6264 5.52263 12.6279C5.5249 12.6294 5.54918 12.6393 5.57648 12.6506C5.60378 12.6613 5.6508 12.6954 5.67962 12.7265L5.73347 12.7818L5.67962 12.8372C5.6508 12.8683 5.60378 12.9017 5.57648 12.913C5.54918 12.9244 5.5249 12.9343 5.52263 12.9358C5.52035 12.9373 5.54993 12.9714 5.58861 13.0116C5.62729 13.0526 5.67962 13.1284 5.70465 13.1808C5.74712 13.2672 5.75091 13.29 5.74939 13.4379C5.74787 13.566 5.73575 13.6464 5.69024 13.8262C5.55752 14.3502 5.57041 14.6392 5.7365 14.8895C5.76684 14.935 5.78959 14.9744 5.78731 14.9774C5.77669 14.988 5.59392 14.9031 5.54235 14.8637C5.39522 14.7499 5.32848 14.5641 5.3755 14.3957C5.3846 14.3608 5.38839 14.329 5.38308 14.3237C5.3755 14.3161 5.29663 14.3366 5.23368 14.3631C5.19803 14.3775 5.21169 14.2676 5.25416 14.1925L5.29435 14.1212L5.2314 14.1318L5.1677 14.1417L5.1821 14.0909C5.19045 14.062 5.21471 14.0203 5.23747 13.9968L5.2769 13.9543L5.18362 13.9521C5.13205 13.9505 5.06 13.9369 5.0236 13.9225C4.84689 13.8512 4.74602 13.5842 4.82717 13.4037C4.8704 13.3082 4.9379 13.2657 5.06228 13.2551C5.16315 13.2467 5.16542 13.246 5.16542 13.2005C5.16542 13.1747 5.173 13.1542 5.18134 13.1542C5.21623 13.1542 5.26174 13.221 5.2625 13.2718C5.2625 13.315 5.27159 13.3287 5.31331 13.3484C5.3846 13.3825 5.38612 13.4075 5.31938 13.447C5.27387 13.4743 5.26174 13.4917 5.26174 13.5289C5.26174 13.5592 5.24582 13.5926 5.21776 13.6206L5.17376 13.6639L5.16466 13.5873C5.15404 13.4955 5.13508 13.4728 5.06758 13.4728C4.96671 13.4728 4.9379 13.5994 5.01905 13.6912C5.05849 13.7359 5.07745 13.7435 5.15936 13.7496C5.23899 13.7549 5.2625 13.7503 5.31028 13.7177C5.39901 13.6563 5.44528 13.5562 5.44528 13.4212C5.44528 13.2945 5.42252 13.2361 5.33606 13.1497C5.17604 12.9881 4.93562 12.9957 4.77636 13.1686C4.68687 13.2642 4.66412 13.3529 4.68459 13.5198C4.69749 13.6214 4.73692 13.7124 5.05772 14.3859C5.68568 15.7002 5.85253 16.0582 5.88211 16.1575C5.92534 16.3046 5.92155 16.5815 5.87377 16.7036C5.80779 16.8719 5.61895 17.0335 5.44982 17.0646C5.36109 17.082 5.36488 17.0979 5.46196 17.1199C5.6417 17.1601 5.82144 17.3224 5.88211 17.4991C5.9261 17.625 5.92155 17.9201 5.87377 18.0573C5.85405 18.1142 5.69327 18.4638 5.51656 18.8347C4.6535 20.6442 4.699 20.5449 4.68383 20.6625C4.65501 20.8998 4.74223 21.0576 4.94018 21.1281C5.12144 21.1933 5.31786 21.1129 5.41038 20.937C5.47864 20.8058 5.44679 20.5767 5.34744 20.4865C5.26932 20.4145 5.10551 20.4107 5.02739 20.4789C4.97279 20.5259 4.95686 20.6382 4.99782 20.6837C5.0638 20.758 5.16542 20.7011 5.16542 20.5904C5.16542 20.5616 5.17149 20.5373 5.17908 20.5373C5.20865 20.5373 5.26174 20.6162 5.2625 20.6602C5.2625 20.6981 5.27311 20.7125 5.31406 20.7322C5.34288 20.7451 5.3664 20.7671 5.3664 20.7808C5.3664 20.7936 5.34288 20.8157 5.31406 20.8293C5.27008 20.8498 5.2625 20.8619 5.2625 20.912C5.26174 20.9688 5.23367 21.0083 5.18134 21.0272C5.16163 21.0341 5.15783 21.025 5.16238 20.9825L5.16922 20.9286H5.09564C4.88481 20.9286 4.76877 20.7861 4.8029 20.5677C4.83551 20.3644 4.99402 20.2309 5.20486 20.2294C5.26781 20.2294 5.27994 20.2256 5.25794 20.2127C5.22912 20.196 5.19424 20.1369 5.17452 20.0732C5.16466 20.0398 5.16845 20.0383 5.22078 20.0466C5.25188 20.0519 5.27766 20.0534 5.27766 20.0497C5.27766 20.0459 5.26326 20.014 5.24582 19.9791C5.22837 19.9442 5.21396 19.8912 5.21396 19.8616V19.8085L5.26098 19.8327C5.28677 19.8464 5.32772 19.8578 5.35123 19.8578C5.3899 19.8578 5.39218 19.854 5.38005 19.813C5.3535 19.7273 5.36564 19.5627 5.40356 19.4884C5.4703 19.3603 5.60758 19.2511 5.74788 19.2169L5.79338 19.2055L5.7365 19.2958C5.64929 19.4331 5.61212 19.5423 5.60302 19.6887C5.59165 19.8684 5.62123 20.099 5.68948 20.3591C5.76608 20.6518 5.77215 20.8558 5.7092 20.9908C5.68645 21.0401 5.63412 21.1175 5.59316 21.163L5.5196 21.2457L5.58406 21.2752C5.61971 21.2912 5.66597 21.3253 5.68796 21.3511C5.72437 21.3951 5.72513 21.4004 5.70162 21.4368C5.67432 21.4777 5.55979 21.5414 5.51277 21.5414C5.49381 21.5414 5.51732 21.5718 5.57951 21.6302C5.72133 21.7629 5.75091 21.8418 5.74939 22.0761C5.74863 22.2399 5.7403 22.2923 5.6819 22.5168C5.56586 22.9604 5.57269 23.1257 5.71982 23.4344L5.79186 23.5861L5.73347 23.5762C5.49078 23.5368 5.29435 23.2494 5.35578 23.0249L5.37246 22.9627L5.3209 22.9703C5.29284 22.9741 5.25719 22.9832 5.24202 22.99C5.20258 23.0067 5.20486 22.9475 5.24582 22.855C5.26326 22.8163 5.27766 22.7814 5.27766 22.7769C5.27766 22.7723 5.24885 22.7716 5.21396 22.7746C5.1639 22.7799 5.1495 22.7754 5.1495 22.7556C5.1495 22.7268 5.18514 22.67 5.24202 22.6078L5.2807 22.5653H5.18742C4.94928 22.5668 4.77787 22.3802 4.80138 22.1459C4.8211 21.9532 4.96976 21.838 5.12295 21.8971C5.17073 21.9153 5.18589 21.8903 5.17148 21.8167C5.16011 21.7621 5.17377 21.7568 5.2261 21.7932C5.25264 21.8122 5.26174 21.8349 5.26174 21.8812C5.26174 21.9358 5.26705 21.9449 5.30572 21.954C5.32999 21.9593 5.36412 21.9745 5.38081 21.9874C5.40962 22.0094 5.41039 22.0124 5.38384 22.0412C5.36867 22.0587 5.33531 22.0761 5.30952 22.0814C5.26781 22.0898 5.26326 22.0966 5.2716 22.1376C5.27842 22.1724 5.27008 22.196 5.23747 22.2346C5.18286 22.3006 5.17073 22.2998 5.17832 22.2293C5.18742 22.1535 5.14722 22.092 5.08806 22.092C5.0236 22.092 4.9872 22.1254 4.98568 22.1868C4.98113 22.3431 5.19045 22.4174 5.3444 22.3142C5.45058 22.243 5.49988 22.0458 5.44755 21.9062C5.39142 21.7591 5.24202 21.6787 5.0289 21.6802C4.79607 21.6825 4.66866 21.8183 4.68838 22.042C4.69976 22.1641 4.7536 22.3196 4.90604 22.6677C5.06152 23.0211 5.10854 23.169 5.09716 23.2676C5.07138 23.4981 4.80973 23.6088 4.57083 23.489L4.47982 23.4435L4.38351 23.489C4.13551 23.6058 3.88068 23.4989 3.85489 23.2676C3.84352 23.169 3.89054 23.0211 4.04601 22.6677C4.19845 22.3196 4.2523 22.1641 4.26367 22.042C4.28339 21.8183 4.15598 21.6825 3.92239 21.6802C3.71004 21.6787 3.56063 21.7591 3.50451 21.9062C3.45218 22.0458 3.50147 22.243 3.60765 22.3142C3.76161 22.4174 3.97094 22.3431 3.96638 22.1868C3.96487 22.1254 3.92846 22.092 3.86399 22.092C3.80484 22.092 3.76464 22.1535 3.77299 22.2293C3.78133 22.2998 3.76919 22.3006 3.71459 22.2346C3.68198 22.196 3.67364 22.1724 3.68046 22.1376C3.68881 22.0966 3.68426 22.0898 3.64254 22.0814C3.61676 22.0761 3.58339 22.0587 3.56822 22.0412C3.54168 22.0124 3.54243 22.0094 3.57125 21.9874C3.58793 21.9745 3.62206 21.9593 3.64633 21.954C3.68501 21.9449 3.69032 21.9358 3.69032 21.8812C3.69032 21.8349 3.69942 21.8122 3.72597 21.7932C3.7783 21.7568 3.79195 21.7621 3.78057 21.8167C3.76616 21.8903 3.78133 21.9153 3.82911 21.8971C4.0407 21.816 4.21893 22.067 4.13019 22.3211C4.07862 22.4697 3.93225 22.5676 3.76465 22.566L3.67136 22.5653L3.71004 22.6078C3.76692 22.67 3.80257 22.7268 3.80257 22.7556C3.80257 22.7754 3.78816 22.7799 3.7381 22.7746C3.70322 22.7716 3.67439 22.7723 3.67439 22.7769C3.67439 22.7814 3.6888 22.8163 3.70625 22.855C3.7472 22.9475 3.74948 23.0067 3.71004 22.99C3.69487 22.9832 3.65923 22.9748 3.63117 22.9703L3.57959 22.9634L3.59628 23.0249C3.64558 23.2039 3.52954 23.4359 3.34297 23.5323C3.30656 23.5512 3.24969 23.5717 3.21784 23.577L3.15792 23.5861L3.21784 23.467C3.38165 23.1387 3.38923 22.9627 3.26106 22.4804C3.21101 22.2915 3.20266 22.2369 3.20191 22.0761C3.20115 21.8418 3.23072 21.7629 3.37255 21.6302C3.43474 21.5718 3.45825 21.5414 3.43929 21.5414C3.39227 21.5414 3.27775 21.4777 3.25044 21.4368C3.22693 21.4004 3.2277 21.3951 3.2641 21.3511C3.28609 21.3253 3.33236 21.2912 3.36876 21.2752L3.43322 21.2449L3.36041 21.166C3.32021 21.1228 3.26789 21.0454 3.24362 20.9946C3.17916 20.8558 3.18522 20.6564 3.26334 20.3515C3.3953 19.8373 3.38317 19.5597 3.21556 19.2958L3.15868 19.2055L3.20418 19.2169C3.34449 19.2511 3.48176 19.3603 3.5485 19.4884C3.58642 19.5627 3.59855 19.7273 3.57201 19.813C3.55987 19.854 3.56215 19.8578 3.60083 19.8578C3.62434 19.8578 3.6653 19.8464 3.69108 19.8327L3.7381 19.8085V19.8616C3.7381 19.8912 3.72369 19.9442 3.70625 19.9791C3.6888 20.014 3.67439 20.0459 3.67439 20.0497C3.67439 20.0534 3.69942 20.0519 3.73127 20.0466C3.78436 20.0383 3.7874 20.0398 3.77678 20.0732C3.75782 20.1369 3.72293 20.196 3.69411 20.2127C3.67212 20.2256 3.68426 20.2294 3.7472 20.2294C3.95804 20.2309 4.11654 20.3644 4.14915 20.5677C4.18328 20.7861 4.06725 20.9286 3.85641 20.9286H3.78361L3.78967 20.984C3.79725 21.0485 3.78967 21.0515 3.73279 21.006C3.70094 20.981 3.69032 20.9575 3.68956 20.9127C3.68956 20.8619 3.68198 20.8498 3.63799 20.8293C3.57201 20.7982 3.57201 20.7626 3.63799 20.7322C3.6797 20.7125 3.68956 20.6981 3.68956 20.6579C3.69032 20.6268 3.70473 20.5949 3.72748 20.573C3.77754 20.5259 3.78664 20.5282 3.78664 20.5904C3.78664 20.7011 3.88827 20.758 3.95425 20.6837C3.9952 20.6382 3.97852 20.5259 3.92467 20.4789C3.84655 20.4107 3.68274 20.4145 3.60462 20.4865C3.50527 20.5767 3.47265 20.8058 3.54167 20.937C3.6342 21.1129 3.82987 21.1933 4.01189 21.1281C4.20983 21.0576 4.29705 20.8998 4.26747 20.6625C4.25306 20.5449 4.29857 20.6442 3.4355 18.8347C3.25879 18.4638 3.098 18.1142 3.07828 18.0573C3.02595 17.9079 3.02595 17.6061 3.07828 17.4741C3.14351 17.3095 3.31339 17.1639 3.49693 17.1161C3.58793 17.0926 3.58794 17.0835 3.49769 17.0646C3.32856 17.0297 3.14351 16.8696 3.07828 16.7036C3.0305 16.5815 3.02671 16.3046 3.06994 16.1575C3.09952 16.0582 3.26637 15.7002 3.89433 14.3859C4.21514 13.7124 4.25458 13.6214 4.26747 13.5198C4.28795 13.3529 4.26519 13.2642 4.1757 13.1686C4.01643 12.9957 3.77603 12.9881 3.616 13.1497C3.52954 13.2361 3.50679 13.2945 3.50679 13.4212C3.50679 13.5562 3.55305 13.6563 3.64178 13.7177C3.68956 13.7503 3.71307 13.7549 3.79271 13.7496C3.87461 13.7435 3.89357 13.7359 3.93301 13.6912C4.01416 13.5994 3.98534 13.4728 3.88447 13.4728C3.81697 13.4728 3.79725 13.4955 3.78739 13.5873L3.77829 13.6639L3.73431 13.6206C3.70625 13.5926 3.69032 13.5592 3.69032 13.5289C3.69032 13.4917 3.67819 13.4743 3.63268 13.447C3.56594 13.4075 3.56746 13.3825 3.63875 13.3484C3.68046 13.3287 3.68956 13.315 3.68956 13.2718C3.69032 13.221 3.73582 13.1542 3.77071 13.1542C3.77905 13.1542 3.78664 13.1747 3.78664 13.2005C3.78664 13.246 3.78892 13.2467 3.88978 13.2551C4.01416 13.2657 4.08166 13.3082 4.12489 13.4037C4.20604 13.5842 4.10517 13.8512 3.92846 13.9225C3.89206 13.9369 3.82 13.9505 3.76843 13.9521L3.67439 13.9543L3.71459 13.9968C3.73658 14.0203 3.76161 14.062 3.76995 14.0909L3.78437 14.1417L3.72217 14.1318L3.66074 14.1219L3.69942 14.1993C3.74114 14.2835 3.75251 14.3768 3.71838 14.3631C3.65923 14.3381 3.57656 14.3161 3.56973 14.3229C3.56594 14.3267 3.57049 14.3707 3.58111 14.4208C3.61448 14.5815 3.54622 14.7582 3.40971 14.8637C3.35814 14.9031 3.17536 14.988 3.16474 14.9774C3.16247 14.9744 3.18522 14.935 3.21556 14.8895C3.38165 14.6392 3.39454 14.3502 3.26182 13.8262C3.21632 13.6464 3.20418 13.566 3.20266 13.4379C3.20115 13.29 3.20494 13.2672 3.24741 13.1808C3.27243 13.1284 3.32477 13.0526 3.36345 13.0116C3.40212 12.9714 3.4317 12.9373 3.42943 12.9358C3.42715 12.9343 3.40289 12.9244 3.37558 12.913C3.34828 12.9017 3.30126 12.8683 3.27244 12.8372L3.21859 12.7818L3.27244 12.7265C3.30126 12.6954 3.34828 12.6613 3.37558 12.6506C3.40289 12.6393 3.42715 12.6294 3.42943 12.6279C3.4317 12.6264 3.40212 12.5922 3.36345 12.552C3.32477 12.5111 3.27243 12.4353 3.24741 12.3829C3.20494 12.2965 3.20115 12.2737 3.20266 12.1258C3.20418 11.9977 3.21632 11.9173 3.26182 11.7375C3.39454 11.2135 3.38165 10.9245 3.21556 10.6742C3.18522 10.6287 3.16247 10.5893 3.16474 10.5863C3.17536 10.5756 3.35814 10.6606 3.40971 10.7C3.55684 10.8138 3.62283 10.9988 3.57656 11.168C3.56746 11.2021 3.56366 11.2347 3.56897 11.2393C3.57656 11.2476 3.65544 11.2271 3.71838 11.2006C3.75403 11.1854 3.74038 11.2954 3.69791 11.3712L3.65771 11.4417L3.72065 11.4319L3.78437 11.422L3.76995 11.4728C3.76161 11.5017 3.73658 11.5434 3.71459 11.5669L3.67439 11.6093L3.76843 11.6116C3.82 11.6131 3.89206 11.626 3.92846 11.6412C4.10517 11.7125 4.20604 11.9795 4.12489 12.16C4.08166 12.2555 4.01416 12.298 3.88978 12.3086C3.78892 12.3162 3.78664 12.3177 3.78664 12.3632C3.78664 12.4163 3.77602 12.4193 3.72597 12.3844C3.70018 12.3662 3.69032 12.342 3.68956 12.2995C3.68956 12.2479 3.68198 12.2358 3.63875 12.2153C3.56746 12.1812 3.56594 12.1562 3.63268 12.1167C3.67819 12.0894 3.69032 12.072 3.69032 12.0348C3.69032 12.0037 3.70625 11.9711 3.73431 11.943L3.77829 11.8991L3.78739 11.9764C3.79725 12.0682 3.81697 12.0909 3.88447 12.0909C3.98534 12.0909 4.01416 11.9635 3.93301 11.8725C3.89357 11.8278 3.87461 11.8202 3.79271 11.8141C3.71307 11.8088 3.68956 11.8134 3.64178 11.846C3.55305 11.9074 3.50679 12.0075 3.50679 12.1425C3.50679 12.2692 3.52954 12.3268 3.616 12.414C3.77603 12.5756 4.01643 12.568 4.1757 12.3951C4.26519 12.2995 4.28795 12.2108 4.26747 12.0447C4.25534 11.9453 4.22196 11.8657 4.00961 11.4213C3.29367 9.92114 3.12304 9.5571 3.08436 9.44637C3.04871 9.34247 3.04264 9.29696 3.04264 9.13846C3.04188 8.91548 3.07449 8.8131 3.18522 8.68873C3.25879 8.60606 3.40213 8.51884 3.49769 8.49912C3.58794 8.48016 3.58793 8.47107 3.49693 8.44756C3.31339 8.39978 3.14351 8.25417 3.07828 8.08959C3.02595 7.95687 3.02595 7.65577 3.07828 7.5056C3.098 7.44948 3.25879 7.09986 3.4355 6.729C4.29857 4.91868 4.25306 5.0188 4.26747 4.90125C4.29705 4.66387 4.20983 4.50611 4.01189 4.43558C3.82987 4.37035 3.6342 4.45075 3.54167 4.6267C3.47265 4.7579 3.50527 4.98695 3.60462 5.0772C3.68274 5.14925 3.84655 5.15303 3.92467 5.08478C3.97852 5.03776 3.9952 4.92552 3.95425 4.88001C3.88827 4.80569 3.78664 4.86181 3.78664 4.97253C3.78664 5.00211 3.78057 5.02562 3.77299 5.02562C3.74341 5.02562 3.69032 4.94751 3.68956 4.90353C3.68956 4.86561 3.67894 4.85042 3.63799 4.83146C3.57201 4.80037 3.57201 4.7655 3.63799 4.7344C3.68198 4.71393 3.68956 4.70178 3.68956 4.65173C3.69032 4.59485 3.71838 4.55541 3.77071 4.53645C3.79043 4.52962 3.79422 4.53873 3.78967 4.5812L3.78361 4.63429H3.85641ZM4.17495 23.2562C4.14385 23.2236 4.15219 23.0984 4.19315 22.9824C4.23865 22.852 4.46466 22.3347 4.47603 22.3347C4.48741 22.3347 4.71493 22.8565 4.76043 22.9877C4.80366 23.1129 4.81125 23.213 4.77939 23.2516C4.7483 23.2896 4.65198 23.2714 4.55566 23.2092L4.47603 23.1576L4.3964 23.2092C4.3069 23.2668 4.2068 23.2881 4.17495 23.2562ZM4.41991 21.6264C4.35696 21.5505 4.25002 21.483 4.13929 21.4489C4.0225 21.4133 4.01264 21.4019 4.08621 21.3882C4.18329 21.37 4.32738 21.2836 4.40474 21.1971L4.47603 21.1175L4.54732 21.1971C4.62392 21.2828 4.76802 21.37 4.86509 21.3882C4.93563 21.4011 4.93107 21.4201 4.85448 21.4345C4.76119 21.4527 4.61027 21.5392 4.54125 21.615C4.50485 21.6544 4.47375 21.6871 4.47148 21.6863C4.46996 21.6855 4.44645 21.659 4.41991 21.6264ZM4.29173 19.0645C4.08696 19.0645 3.94969 18.9659 3.89205 18.7778C3.88144 18.7444 3.88447 18.7429 3.93377 18.7573C4.00506 18.7786 4.15522 18.777 4.21741 18.7551C4.30918 18.7224 4.31601 18.6876 4.30463 18.3053L4.29477 17.9648L4.24851 18.0035C4.19466 18.0497 4.10972 18.0763 4.01719 18.0763C3.91784 18.0763 3.85641 18.093 3.81773 18.1294C3.78815 18.1574 3.7836 18.1749 3.78967 18.2492C3.79725 18.3425 3.79043 18.3493 3.72445 18.3099C3.66074 18.2712 3.62586 18.2151 3.62131 18.14C3.61676 18.0786 3.61221 18.071 3.55608 18.052C3.48783 18.0285 3.43322 17.9845 3.43322 17.9534C3.43322 17.9291 3.55987 17.8495 3.59931 17.8495C3.61903 17.8495 3.62585 17.8351 3.62585 17.7957C3.62585 17.7312 3.67895 17.6485 3.7472 17.6061L3.79649 17.575L3.78967 17.6713C3.7836 17.757 3.78664 17.7706 3.8238 17.8086C3.85642 17.8404 3.88144 17.8495 3.93907 17.8495C4.05739 17.8495 4.10365 17.7851 4.09151 17.6394C4.08241 17.534 3.97624 17.4271 3.84049 17.3869C3.75706 17.3626 3.7419 17.3626 3.64406 17.3869C3.38317 17.4513 3.27319 17.6508 3.34373 17.9299C3.368 18.0247 3.53181 18.3842 4.22727 19.8699C4.35772 20.1482 4.46996 20.3758 4.47603 20.3758C4.4821 20.3758 4.56552 20.2097 4.66032 20.0072C5.65762 17.8768 5.64245 17.9125 5.62653 17.7335C5.60984 17.5499 5.50443 17.4354 5.308 17.3869C5.21017 17.3626 5.195 17.3626 5.11158 17.3869C4.97582 17.4271 4.86964 17.534 4.86054 17.6394C4.8484 17.7851 4.89467 17.8495 5.01298 17.8495C5.07062 17.8495 5.09565 17.8404 5.12826 17.8086C5.16542 17.7706 5.16845 17.757 5.16238 17.6713L5.15556 17.575L5.20486 17.6061C5.27312 17.6485 5.3262 17.7312 5.3262 17.7957C5.3262 17.8351 5.33303 17.8495 5.35274 17.8495C5.39218 17.8495 5.51808 17.9291 5.51808 17.9534C5.51808 17.9845 5.46424 18.0285 5.39598 18.052C5.33986 18.071 5.33531 18.0786 5.33076 18.14C5.32621 18.2151 5.29132 18.2712 5.22761 18.3099C5.16239 18.3493 5.15404 18.3425 5.16162 18.2568C5.16617 18.2135 5.16087 18.1627 5.15102 18.1445C5.13054 18.1043 5.04332 18.077 4.94094 18.0763C4.84234 18.0763 4.75892 18.0505 4.70355 18.0035L4.65729 17.9648L4.64667 18.303C4.6353 18.6731 4.64136 18.7095 4.71872 18.7497C4.76953 18.7763 4.93942 18.7801 5.01829 18.7573C5.06759 18.7429 5.07062 18.7444 5.06 18.7778C5.00236 18.9667 4.86585 19.0637 4.65729 19.0645H4.57993L4.62999 19.1047C4.65805 19.1259 4.68914 19.1661 4.70052 19.1942C4.73085 19.267 4.71189 19.4149 4.65956 19.5233C4.61178 19.6227 4.51016 19.744 4.47603 19.744C4.4419 19.744 4.34027 19.6227 4.29173 19.5218C4.24471 19.4255 4.22348 19.2935 4.24244 19.2154C4.2485 19.1911 4.27884 19.1472 4.30994 19.1176L4.36606 19.0645H4.29173ZM4.42901 17.4688C4.34862 17.3156 4.14537 17.1662 3.94667 17.1161L3.85945 17.0934L3.95425 17.0653C4.00658 17.0502 4.08545 17.0191 4.12943 16.9963C4.23182 16.944 4.38123 16.8006 4.42977 16.7074C4.45101 16.6679 4.47148 16.6353 4.47603 16.6353C4.48058 16.6353 4.50106 16.6679 4.52229 16.7074C4.59738 16.8515 4.78925 17.0016 4.9652 17.0555C5.00009 17.0661 5.04028 17.079 5.05318 17.0835C5.06683 17.0881 5.02512 17.1086 4.96141 17.129C4.89771 17.1495 4.80973 17.1889 4.7665 17.217C4.67094 17.2792 4.55035 17.4066 4.51319 17.4847C4.49802 17.5166 4.4821 17.5424 4.47679 17.5424C4.47224 17.5424 4.45025 17.509 4.42901 17.4688ZM4.35089 15.1132L4.30159 15.0563C4.24244 14.988 4.22879 14.9426 4.23865 14.8409C4.24927 14.7347 4.31297 14.6028 4.40019 14.5065L4.47375 14.4253L4.53973 14.4898C4.65956 14.6073 4.74147 14.8326 4.71038 14.9585C4.70431 14.9812 4.67776 15.0252 4.65046 15.0563L4.60117 15.1132H4.66411C4.75209 15.1132 4.86813 15.1511 4.93259 15.2012C4.98189 15.2391 5.08351 15.412 5.06682 15.4295C5.06303 15.4332 5.03118 15.4287 4.99706 15.4188C4.96293 15.4097 4.88784 15.4044 4.83172 15.4082C4.73844 15.4143 4.72327 15.4203 4.68004 15.4696L4.6315 15.5243L4.64212 15.7032C4.64743 15.8018 4.65198 15.9573 4.65274 16.0491V16.2159L4.70431 16.1772C4.77712 16.1234 4.80139 16.1158 4.96141 16.1021C5.14571 16.0862 5.17148 16.065 5.16238 15.9353C5.15859 15.8837 5.15935 15.842 5.16466 15.842C5.18969 15.842 5.27919 15.9103 5.30346 15.9474C5.31787 15.9702 5.33 16.0172 5.33 16.0521C5.33 16.1105 5.33379 16.115 5.3846 16.1249C5.41418 16.1302 5.45817 16.1522 5.48244 16.1734C5.53932 16.2242 5.52263 16.2569 5.40963 16.3115C5.34516 16.3433 5.3262 16.3608 5.3262 16.3896C5.3262 16.445 5.28449 16.5155 5.22458 16.5617C5.195 16.5845 5.16769 16.6035 5.1639 16.6035C5.16011 16.6035 5.16011 16.5602 5.16314 16.5087C5.16769 16.4192 5.16542 16.4116 5.11764 16.3706C5.04938 16.313 4.9561 16.3115 4.89998 16.3676C4.86888 16.3994 4.8613 16.4237 4.8613 16.4897C4.8613 16.5913 4.8886 16.6474 4.97354 16.721C5.12901 16.8552 5.36109 16.8401 5.5196 16.6854C5.60985 16.5974 5.6379 16.5124 5.62653 16.3683C5.61288 16.2083 5.61515 16.2136 4.8613 14.6035C4.73616 14.3358 4.60041 14.0469 4.56021 13.9597C4.52002 13.8732 4.48286 13.8019 4.47603 13.8019C4.47072 13.8019 4.39943 13.9422 4.3198 14.1136C4.2394 14.285 4.01037 14.7749 3.81015 15.2027C3.61069 15.6297 3.42184 16.0407 3.39075 16.115C3.32704 16.2713 3.30733 16.4252 3.3369 16.5382C3.36117 16.6292 3.47948 16.7498 3.57959 16.7862C3.72065 16.8363 3.87385 16.8113 3.97851 16.721C4.07407 16.6391 4.09758 16.5822 4.09303 16.4525C4.08848 16.3357 3.93376 16.2864 3.83441 16.3706C3.78663 16.4116 3.78436 16.4192 3.78891 16.5087C3.79194 16.5602 3.79194 16.6035 3.78815 16.6035C3.78436 16.6035 3.75706 16.5845 3.72748 16.5617C3.66757 16.5155 3.62585 16.445 3.62585 16.3896C3.62585 16.3608 3.60689 16.3433 3.54243 16.3115C3.42943 16.2569 3.41274 16.2242 3.46962 16.1734C3.49389 16.1522 3.53788 16.1302 3.56746 16.1249C3.61828 16.115 3.62131 16.1105 3.62131 16.0521C3.62131 16.0172 3.6342 15.9702 3.64861 15.9474C3.67288 15.9103 3.76237 15.842 3.78739 15.842C3.7927 15.842 3.79346 15.8837 3.78967 15.9353C3.78057 16.065 3.80636 16.0862 3.99065 16.1021C4.15067 16.1158 4.17494 16.1234 4.24775 16.1772L4.29932 16.2159L4.30008 16.0491C4.30008 15.9573 4.30463 15.8018 4.30994 15.7032L4.32055 15.5243L4.27202 15.4696C4.22803 15.4203 4.21362 15.4143 4.12033 15.4082C4.06421 15.4044 3.98913 15.4097 3.95501 15.4188C3.92088 15.4287 3.88902 15.4332 3.88523 15.4295C3.86855 15.412 3.97017 15.2391 4.01947 15.2012C4.08393 15.1511 4.19997 15.1132 4.28795 15.1132H4.35089ZM4.44342 13.0321C4.39715 12.9449 4.16964 12.7985 4.07939 12.7985C4.05891 12.7978 4.04298 12.7909 4.04298 12.7818C4.04298 12.7727 4.05891 12.7659 4.07939 12.7659C4.17115 12.7652 4.40095 12.6135 4.45707 12.5149L4.47603 12.4823L4.49423 12.5149C4.55111 12.6135 4.78091 12.7652 4.87268 12.7659C4.8924 12.7659 4.90908 12.7727 4.90908 12.7818C4.90908 12.7909 4.8924 12.7978 4.87268 12.7985C4.78243 12.7985 4.5549 12.9449 4.50864 13.0321C4.4965 13.0549 4.4821 13.0731 4.47603 13.0731C4.46996 13.0731 4.45555 13.0549 4.44342 13.0321ZM4.28795 10.4505C4.19997 10.4505 4.08393 10.4126 4.01947 10.3625C3.97017 10.3246 3.86855 10.1517 3.88523 10.1343C3.88902 10.1305 3.92088 10.135 3.95501 10.1449C3.98913 10.154 4.06345 10.1593 4.12033 10.1555C4.21362 10.1494 4.22803 10.1434 4.27202 10.0941L4.32055 10.0395L4.30994 9.86046C4.30463 9.76187 4.30008 9.60639 4.29932 9.51462V9.34778L4.24775 9.38646C4.17494 9.4403 4.15067 9.44789 3.99065 9.46154C3.80636 9.47746 3.78057 9.4987 3.78967 9.62838C3.79346 9.6792 3.7927 9.72168 3.78739 9.72168C3.76237 9.72168 3.67288 9.65342 3.64861 9.61625C3.6342 9.5935 3.62131 9.54649 3.62131 9.5116C3.62131 9.45321 3.61828 9.44864 3.56746 9.43878C3.53788 9.43347 3.49389 9.41149 3.46962 9.39025C3.41274 9.33944 3.42943 9.30682 3.54243 9.25222C3.60689 9.22036 3.62585 9.20292 3.62585 9.1741C3.62585 9.11873 3.66757 9.04822 3.72748 9.00196C3.75706 8.97921 3.78436 8.96024 3.78815 8.96024C3.79119 8.96024 3.79194 9.00271 3.78891 9.05504C3.78436 9.14453 3.78663 9.1521 3.83441 9.19306C3.90267 9.2507 3.99672 9.25222 4.05209 9.19609C4.08318 9.16424 4.09151 9.13998 4.09151 9.074C4.09151 8.97237 4.06345 8.91625 3.97851 8.84268C3.82304 8.70769 3.59097 8.72285 3.43246 8.87757C3.34221 8.9663 3.31415 9.05124 3.32553 9.19534C3.33918 9.35536 3.3369 9.34929 4.09075 10.9601C4.21589 11.2271 4.35165 11.5168 4.39185 11.604C4.43205 11.6905 4.46921 11.7618 4.47527 11.7618C4.48134 11.7618 4.55718 11.6101 4.64364 11.4258C5.26401 10.1009 5.56737 9.44334 5.59089 9.37357C5.62805 9.2636 5.63867 9.11343 5.61516 9.02545C5.578 8.88591 5.38991 8.75016 5.23368 8.75016C5.05242 8.75016 4.87267 8.88211 4.86054 9.02545C4.85296 9.1157 4.86282 9.15817 4.89998 9.19609C4.95534 9.25222 5.04938 9.2507 5.11764 9.19306C5.16542 9.1521 5.16769 9.14453 5.16314 9.05504C5.16011 9.00271 5.16011 8.96024 5.1639 8.96024C5.16769 8.96024 5.195 8.97921 5.22458 9.00196C5.28449 9.04822 5.3262 9.11873 5.3262 9.1741C5.3262 9.20292 5.34516 9.22036 5.40963 9.25222C5.52414 9.30758 5.54007 9.3402 5.47864 9.39025C5.4521 9.41224 5.40735 9.43423 5.38005 9.43954C5.33454 9.44788 5.33 9.45472 5.33 9.5116C5.33 9.54649 5.31787 9.5935 5.30346 9.61625C5.27919 9.65342 5.18969 9.72168 5.16466 9.72168C5.15935 9.72168 5.15859 9.6792 5.16238 9.62838C5.17148 9.4987 5.14571 9.47746 4.96141 9.46154C4.80139 9.44789 4.77712 9.4403 4.70431 9.38646L4.65274 9.34778V9.51462C4.65198 9.60639 4.64743 9.76187 4.64212 9.86046L4.6315 10.0395L4.68004 10.0941C4.72327 10.1434 4.73844 10.1494 4.83172 10.1555C4.88784 10.1593 4.96293 10.154 4.99706 10.1449C5.03118 10.135 5.06303 10.1305 5.06682 10.1343C5.08351 10.1517 4.98189 10.3246 4.93259 10.3625C4.86813 10.4126 4.75209 10.4505 4.66411 10.4505H4.60117L4.65046 10.5074C4.67776 10.5385 4.70431 10.5825 4.71038 10.6052C4.74147 10.7304 4.65956 10.9556 4.54125 11.0732L4.47603 11.1369L4.41081 11.0732C4.2925 10.9556 4.21059 10.7304 4.24169 10.6052C4.247 10.5825 4.27429 10.5385 4.30159 10.5074L4.35089 10.4505H4.28795ZM4.43583 8.86392C4.45176 8.89881 4.4692 8.92838 4.47451 8.92838C4.47982 8.92838 4.50106 8.89577 4.52229 8.85557C4.59738 8.71223 4.78925 8.56208 4.9652 8.50823C5.00009 8.49762 5.04028 8.48471 5.05318 8.48016C5.06683 8.47561 5.02512 8.45513 4.96141 8.43465C4.89771 8.41418 4.80973 8.37474 4.7665 8.34668C4.67094 8.28449 4.55035 8.15708 4.51319 8.07896C4.49802 8.04711 4.4821 8.02132 4.47679 8.02132C4.47224 8.02132 4.45025 8.05469 4.42901 8.09489C4.34862 8.24809 4.14537 8.3975 3.94667 8.44756L3.85945 8.47031L3.95425 8.49836C4.00658 8.51353 4.08621 8.54462 4.13019 8.56737C4.23334 8.62046 4.39867 8.7805 4.43583 8.86392ZM4.36606 6.49922L4.30994 6.44611C4.27884 6.41653 4.2485 6.37254 4.24244 6.34828C4.22348 6.27016 4.24471 6.13821 4.29173 6.04189C4.34027 5.94103 4.4419 5.81967 4.47603 5.81967C4.51016 5.81967 4.61102 5.94103 4.66032 6.04189C4.71341 6.14959 4.73085 6.29519 4.70052 6.37027C4.68914 6.39682 4.6588 6.43702 4.63302 6.45902L4.586 6.49922H4.66032C4.86509 6.49922 5.00236 6.59779 5.06 6.78588C5.07062 6.81925 5.06759 6.82077 5.01829 6.80636C4.947 6.78512 4.79684 6.78664 4.73465 6.80863C4.64213 6.84124 4.6353 6.87764 4.64667 7.25912L4.65729 7.59891L4.70355 7.56023C4.7574 7.51396 4.84234 7.4874 4.93486 7.4874C5.03497 7.48664 5.09564 7.47072 5.13432 7.43432C5.1639 7.40626 5.16845 7.38883 5.16238 7.3145C5.1548 7.22122 5.16163 7.21439 5.22761 7.25383C5.29132 7.29251 5.32621 7.34863 5.33076 7.42295C5.33531 7.48514 5.33986 7.49196 5.39598 7.51168C5.46424 7.53519 5.51808 7.57918 5.51808 7.61027C5.51808 7.63454 5.39218 7.71341 5.35274 7.71341C5.33303 7.71341 5.3262 7.72783 5.3262 7.76803C5.3262 7.83249 5.27312 7.91516 5.20486 7.95763L5.15556 7.98872L5.16238 7.8924C5.16845 7.8067 5.16542 7.79304 5.12826 7.75512C5.09565 7.72251 5.07062 7.71341 5.01298 7.71341C4.90832 7.71341 4.8613 7.76347 4.8613 7.87572C4.8613 7.92122 4.87116 7.97886 4.88405 8.00388C4.92197 8.07745 5.01526 8.14798 5.11158 8.1768C5.195 8.20107 5.21017 8.20107 5.308 8.1768C5.56889 8.11234 5.67886 7.91288 5.60833 7.63379C5.58482 7.54278 5.39218 7.1211 4.66032 5.5565C4.56552 5.35325 4.4821 5.18793 4.47603 5.18793C4.46996 5.18793 4.35469 5.42303 4.21969 5.7097C3.55153 7.13551 3.36876 7.53595 3.346 7.62468C3.27396 7.90529 3.37709 8.10703 3.62585 8.17376C3.73961 8.2041 3.74872 8.2041 3.84807 8.17452C3.977 8.13585 4.08241 8.02739 4.09151 7.92425C4.10365 7.77787 4.05739 7.71341 3.93907 7.71341C3.88144 7.71341 3.85642 7.72251 3.8238 7.75512C3.78664 7.79304 3.7836 7.8067 3.78967 7.8924L3.79649 7.98872L3.7472 7.95763C3.67895 7.91516 3.62585 7.83249 3.62585 7.76803C3.62585 7.72783 3.61903 7.71341 3.59931 7.71341C3.55987 7.71341 3.43322 7.63454 3.43322 7.61027C3.43322 7.57918 3.48783 7.53519 3.55608 7.51168C3.61221 7.49196 3.61676 7.48514 3.62131 7.42295C3.62586 7.34863 3.66074 7.29251 3.72445 7.25383C3.78967 7.21439 3.79801 7.22121 3.79043 7.30691C3.78588 7.35014 3.79119 7.40019 3.80105 7.41915C3.82152 7.45859 3.90798 7.48664 4.01113 7.48664C4.10972 7.4874 4.19315 7.5132 4.24851 7.56023L4.29477 7.59891L4.30463 7.25912C4.31677 6.87764 4.30994 6.84124 4.21741 6.80863C4.15522 6.78664 4.00506 6.78512 3.93377 6.80636C3.88447 6.82077 3.88144 6.81925 3.89205 6.78588C3.94969 6.59779 4.08696 6.49922 4.29173 6.49922H4.36606ZM4.40701 4.3696C4.33497 4.28466 4.23789 4.22399 4.11047 4.18304C4.05966 4.16711 4.03008 4.15119 4.04298 4.14664L4.14537 4.11249C4.25609 4.07685 4.34862 4.01845 4.41687 3.94185L4.47603 3.87588L4.53443 3.94185C4.60345 4.01845 4.69597 4.07685 4.8067 4.11249L4.90908 4.14664C4.92273 4.15119 4.89239 4.16711 4.84158 4.18304C4.71493 4.22324 4.61861 4.2839 4.54353 4.3696C4.50864 4.4098 4.47755 4.44241 4.47375 4.44241C4.47072 4.44241 4.44038 4.4098 4.40701 4.3696ZM4.34862 2.95744C4.15826 2.52439 4.11882 2.37802 4.17267 2.31204C4.20376 2.27412 4.30008 2.29232 4.3964 2.35451L4.47603 2.40608L4.5549 2.35527C4.64591 2.29612 4.73693 2.27565 4.77257 2.30522C4.80822 2.33556 4.80215 2.45841 4.75892 2.58052C4.71341 2.71096 4.48741 3.2282 4.47603 3.2282C4.47148 3.2282 4.4146 3.10685 4.34862 2.95744Z" fill="#FFCF2B"/>
<path d="M14.9692 17.5083C14.986 17.4996 15.0436 17.4441 15.0973 17.3849C15.1587 17.3172 15.2037 17.2772 15.2187 17.2772C15.2412 17.2772 15.242 17.2818 15.2333 17.3515C15.216 17.4884 15.2281 17.5149 15.3072 17.5149C15.3927 17.5149 15.4668 17.4581 15.5103 17.359C15.5572 17.2523 15.5857 17.2553 15.6278 17.3711C15.647 17.4243 15.6608 17.4441 15.6861 17.4547C15.7455 17.4794 15.8318 17.4282 15.8894 17.3339C15.9098 17.3005 15.9327 17.2772 15.9451 17.2772C15.9566 17.2772 15.9942 17.3047 16.0285 17.3381C16.085 17.3931 16.0949 17.3984 16.1317 17.3923C16.1909 17.3827 16.2351 17.3461 16.3116 17.2435C16.349 17.1934 16.3847 17.1534 16.3908 17.1547C16.397 17.1559 16.406 17.1724 16.4109 17.1914C16.4242 17.2434 16.4719 17.2891 16.5126 17.2891C16.5639 17.2891 16.5935 17.2581 16.6544 17.1408C16.6845 17.0827 16.7179 17.0298 16.7284 17.0235C16.7431 17.0146 16.7699 17.0251 16.8401 17.0672C16.9517 17.134 16.9978 17.1451 17.0537 17.1182C17.1077 17.0922 17.137 17.024 17.1473 16.8993C17.1517 16.8457 17.1607 16.8018 17.1673 16.8018C17.1738 16.8018 17.2065 16.823 17.2398 16.8489C17.3208 16.9118 17.4332 16.9333 17.531 16.9047C17.6485 16.8703 17.7413 16.7614 17.7419 16.6572L17.7422 16.6137L17.6507 16.6063C17.6003 16.6023 17.3919 16.5823 17.1874 16.562C16.7605 16.5195 16.3669 16.5093 16.3139 16.5392C16.2758 16.5605 16.267 16.5747 16.2668 16.6138C16.2665 16.6524 16.2233 16.6896 16.1582 16.7073C16.1092 16.7206 16.0893 16.747 16.1115 16.7694C16.1547 16.8129 16.101 16.8828 15.9785 16.9424C15.7799 17.0389 15.685 17.0526 15.1334 17.0634C14.6535 17.0729 14.529 17.0828 14.3803 17.1233C14.2064 17.1706 14.0692 17.2665 13.9987 17.3902C13.9468 17.4814 13.9507 17.4912 14.0385 17.4911C14.1276 17.4909 14.188 17.465 14.3415 17.361C14.4008 17.3209 14.4551 17.2917 14.4623 17.2961C14.4708 17.3015 14.4727 17.3294 14.4677 17.3778C14.4577 17.476 14.475 17.5268 14.5184 17.5268C14.5825 17.5268 14.6847 17.4416 14.7784 17.3099C14.8005 17.2789 14.8206 17.2535 14.8228 17.2535C14.8252 17.2535 14.8325 17.2678 14.8391 17.2854C14.8474 17.3074 14.8472 17.3432 14.8384 17.3999C14.8277 17.4701 14.8285 17.4867 14.8445 17.5114C14.8604 17.5356 14.8693 17.539 14.901 17.5322C14.9216 17.5277 14.9523 17.5168 14.9692 17.5083ZM13.3398 16.9572C13.3064 16.9717 13.2689 16.9966 13.2562 17.0128L13.2332 17.0421L13.2212 17.0104C13.1824 16.9077 13.2275 16.8086 13.3487 16.7299L13.3995 16.6969L13.4536 16.7209C13.4901 16.7372 13.5209 16.7427 13.5489 16.7382C13.5748 16.734 13.603 16.7382 13.6254 16.7499C13.7041 16.7909 13.7995 16.7277 13.7995 16.6345C13.7995 16.5937 13.8029 16.5879 13.8266 16.5879C13.8416 16.5879 13.9332 16.5698 14.0303 16.5477C14.2133 16.506 14.3071 16.489 14.3071 16.4974C14.3071 16.5002 14.2699 16.5309 14.2244 16.5658C14.1789 16.6007 14.1418 16.6326 14.1418 16.6367C14.1418 16.6409 14.1631 16.6477 14.1891 16.6519L14.2365 16.6595L14.1701 16.7383C14.1096 16.8101 14.1056 16.8183 14.1254 16.8295C14.1589 16.8483 14.3217 16.8542 14.3698 16.8382C14.4056 16.8263 14.4237 16.828 14.4923 16.85C14.562 16.8723 14.6114 16.8767 14.8678 16.8835C15.0301 16.8878 15.1702 16.896 15.1791 16.9017C15.2239 16.9303 15.1409 16.934 14.7578 16.9203C14.1895 16.8999 13.6413 16.9301 13.4641 16.9916C13.4257 17.0048 13.3928 17.0158 13.3909 17.0158C13.389 17.0158 13.3932 16.9995 13.4 16.9795C13.407 16.9595 13.4098 16.9404 13.4065 16.9371C13.4031 16.9336 13.3731 16.9427 13.3398 16.9572ZM13.5721 16.6774L13.6158 16.6474L13.6313 16.6771C13.6498 16.7127 13.6876 16.7158 13.7048 16.6832C13.7146 16.6648 13.7126 16.655 13.6955 16.6378C13.6743 16.6164 13.6758 16.6151 13.7454 16.5886C13.9834 16.4981 14.4248 16.219 14.6553 16.0131C14.746 15.9322 14.8287 15.8699 14.8855 15.84C15.0286 15.7647 15.2759 15.7097 15.741 15.6494C16.0013 15.6158 16.2748 15.5677 16.3346 15.5453C16.3481 15.5402 16.3937 15.4954 16.4357 15.4457C16.4778 15.396 16.5566 15.3195 16.6107 15.2757C16.7241 15.1842 16.9561 15.0404 17.1107 14.966C17.5002 14.7783 17.7753 14.6369 17.797 14.613C17.8109 14.5977 17.8413 14.5468 17.8645 14.5C17.9547 14.3181 18.2142 14.0216 18.4151 13.8711C18.6193 13.7179 18.7509 13.6641 18.921 13.6641C18.9796 13.6641 19.0297 13.6681 19.0325 13.673C19.0353 13.6778 19.0306 13.7152 19.0222 13.7558C19.0033 13.847 18.9403 13.9701 18.8629 14.0666C18.8103 14.1326 18.8072 14.1395 18.8312 14.1394C18.8458 14.1392 18.8991 14.1258 18.9496 14.1096C19.0601 14.0741 19.084 14.0729 19.0935 14.1027C19.1144 14.1692 19.0613 14.2612 18.9348 14.3775C18.8759 14.4316 18.83 14.4781 18.8327 14.4808C18.8354 14.4836 18.8737 14.4933 18.9177 14.5026C18.9619 14.5118 19.0035 14.5252 19.0104 14.5322C19.0273 14.5492 19.0042 14.5659 18.7722 14.7058C18.6666 14.7694 18.5611 14.8374 18.5375 14.857L18.4946 14.8925L18.55 14.9088C18.5826 14.9183 18.6036 14.931 18.601 14.9394C18.596 14.9556 18.5054 15.0065 18.4269 15.0371C18.364 15.0617 18.3022 15.1058 18.2848 15.1386C18.2751 15.1567 18.2766 15.1666 18.2911 15.1811C18.3015 15.1916 18.3084 15.2087 18.3064 15.2191C18.3015 15.2441 18.2382 15.2862 18.1694 15.3102C18.0243 15.3608 17.9947 15.3968 18.0573 15.4468L18.0905 15.473L18.0508 15.5064C18.0083 15.5423 17.935 15.5657 17.8655 15.5657C17.8241 15.5657 17.8224 15.5673 17.8297 15.5984C17.8473 15.6734 17.8503 15.7301 17.8381 15.7532C17.8195 15.788 17.5766 15.9465 17.4234 16.0239C17.2811 16.0956 17.0944 16.1625 16.9749 16.1844C16.8253 16.2117 16.8467 16.2201 17.0516 16.2142C17.4334 16.2031 17.7661 16.1122 18.0314 15.9464C18.0769 15.918 18.1424 15.8799 18.1771 15.8616C18.2933 15.8003 18.3007 15.7797 18.2174 15.7494C18.1207 15.7143 18.0137 15.6625 18.0137 15.6508C18.0137 15.6369 18.0981 15.5963 18.1647 15.5783C18.1921 15.5708 18.2946 15.5543 18.3922 15.5415C18.6029 15.5139 18.6748 15.4972 18.6748 15.4759C18.6748 15.4506 18.6555 15.4446 18.5177 15.4276C18.3728 15.4097 18.3442 15.4029 18.3442 15.3869C18.3442 15.3745 18.3315 15.3778 18.5952 15.3216C18.8147 15.2747 18.8686 15.258 18.9429 15.2143C19.0313 15.1621 19.0133 15.1545 18.7659 15.1393C18.6764 15.1338 18.6002 15.1262 18.5964 15.1224C18.5927 15.1187 18.6606 15.0936 18.7473 15.0668C19.1032 14.9564 19.1713 14.9321 19.2331 14.8931C19.3618 14.8121 19.3321 14.7755 19.1463 14.7862C19.0456 14.792 19.0173 14.79 18.9987 14.7755C18.9763 14.758 18.9764 14.757 19.0073 14.7308C19.0247 14.716 19.0954 14.6693 19.1644 14.6268C19.6477 14.3292 19.8118 14.1791 19.8386 14.01C19.8449 13.9708 19.8425 13.9601 19.8263 13.9538C19.793 13.941 19.7263 13.9682 19.5896 14.0502C19.4616 14.127 19.3724 14.1635 19.3129 14.1631C19.238 14.1627 19.2499 14.1443 19.4147 14.008C19.7165 13.7583 20.0442 13.4083 20.2067 13.1624C20.2698 13.0668 20.2688 13.0312 20.2018 13.003C20.1224 12.9696 20.1067 12.9804 19.8139 13.2709C19.5975 13.4855 19.5164 13.5577 19.4148 13.6259C19.3447 13.6731 19.2811 13.7116 19.2735 13.7116C19.2658 13.7116 19.2972 13.6729 19.3432 13.6254C19.5848 13.3763 19.8696 12.9871 20.0619 12.6433C20.1657 12.4578 20.1659 12.3621 20.0628 12.3348C20.0158 12.3223 19.9457 12.3382 19.901 12.3714C19.8632 12.3997 19.779 12.5128 19.6426 12.7192C19.5216 12.9022 19.3971 13.0634 19.3118 13.147L19.2392 13.2184L19.3273 13.0401C19.5743 12.5405 19.6687 12.2336 19.6711 11.9228C19.6724 11.7516 19.6565 11.6947 19.6003 11.669C19.5246 11.6343 19.4627 11.6728 19.4408 11.7683C19.4332 11.801 19.4148 11.8705 19.3999 11.9228C19.3849 11.9751 19.3488 12.1117 19.3194 12.2264C19.29 12.3411 19.2492 12.4828 19.2287 12.5414C19.1904 12.6505 19.0968 12.8488 19.078 12.8605C19.0724 12.8642 19.0772 12.8151 19.089 12.7515C19.1356 12.4998 19.1497 12.3651 19.1433 12.2296C19.1399 12.1565 19.1301 12.0819 19.1213 12.0637C19.0914 12.0009 19.0234 11.9845 18.9666 12.0265C18.9527 12.0367 18.9377 12.0803 18.9226 12.1547C18.7672 12.9185 18.3733 13.6361 17.7838 14.2287C17.0924 14.9239 16.1958 15.3505 15.2101 15.4533C14.9525 15.4802 14.944 15.4832 14.8347 15.5882C14.7829 15.6379 14.6622 15.7645 14.5664 15.8693C14.3882 16.0646 14.2765 16.1657 14.1698 16.2288C14.1085 16.2651 13.8358 16.3774 13.7168 16.4155C13.5563 16.4669 13.4181 16.5673 13.403 16.6435C13.3965 16.676 13.4 16.6833 13.4293 16.6997C13.4711 16.7231 13.5152 16.7162 13.5721 16.6774ZM12.6249 16.153C12.3179 16.0688 11.8103 15.8783 11.5375 15.7447C11.4199 15.6872 11.3207 15.6353 11.3171 15.6293C11.3135 15.6235 11.3619 15.5868 11.4247 15.5479L11.5389 15.4771L11.4669 15.4689C11.3818 15.4591 11.2409 15.4132 11.1428 15.3634C11.1042 15.3437 11.0726 15.3255 11.0726 15.3229C11.0726 15.3012 11.0955 15.2747 11.1457 15.2384C11.2008 15.1985 11.2034 15.1943 11.1856 15.1746C11.1752 15.1629 11.1467 15.1476 11.1225 15.1405C11.0983 15.1333 11.0484 15.119 11.0118 15.1085C10.9582 15.093 10.9424 15.0827 10.9312 15.0554C10.9199 15.0278 10.9207 15.0148 10.9354 14.986C10.9455 14.9665 10.9618 14.9474 10.9718 14.9435C11.0105 14.9285 10.9895 14.8981 10.9193 14.8677C10.8804 14.8508 10.8457 14.8276 10.8422 14.8162C10.8385 14.8047 10.8417 14.7708 10.8493 14.7408C10.8644 14.6803 10.8521 14.6505 10.8118 14.6505C10.7463 14.6505 10.5552 14.5458 10.4251 14.4385C10.3805 14.4017 10.3766 14.395 10.3956 14.3875C10.4075 14.3828 10.4393 14.3785 10.4661 14.378C10.4929 14.3775 10.5312 14.3739 10.5513 14.3698L10.5879 14.3624L10.4693 14.2489C10.3408 14.1259 10.2405 14.004 10.2521 13.985C10.2561 13.9784 10.3088 13.9731 10.3694 13.9731H10.4793L10.4697 13.9226C10.4487 13.8114 10.3799 13.6662 10.2928 13.5492C10.2582 13.5029 10.2506 13.4851 10.2615 13.4759C10.2904 13.4518 10.3368 13.4489 10.3886 13.4681C10.4174 13.4786 10.4491 13.4899 10.459 13.4931C10.4713 13.4972 10.4852 13.482 10.503 13.4449C10.5174 13.4151 10.5364 13.3907 10.5453 13.3907C10.5761 13.3907 10.7251 13.5142 10.8668 13.657C10.955 13.7459 11.0869 13.901 11.2127 14.064C11.3245 14.2089 11.4586 14.3731 11.5107 14.4292C11.6902 14.6225 11.8649 14.7323 12.1368 14.8229C12.32 14.884 12.3752 14.9215 12.6066 15.1437C12.8467 15.3741 12.9271 15.4413 13.0197 15.4881C13.1711 15.5649 13.3274 15.592 13.7423 15.6133C14.1072 15.6319 14.2861 15.6791 14.4298 15.7943L14.4759 15.8313L14.4995 15.8025C14.5219 15.7752 14.6494 15.5141 14.6494 15.4956C14.6494 15.4907 14.5572 15.4803 14.4447 15.4724C13.9892 15.4407 13.5911 15.3539 13.1679 15.194C12.6953 15.0153 12.2446 14.7419 11.8556 14.3979C11.2132 13.8297 10.7377 13.0312 10.5586 12.22C10.5321 12.1 10.5158 12.0458 10.5001 12.0265C10.4985 12.0246 10.4814 12.0185 10.4618 12.0129C10.4059 11.9968 10.3557 12.0273 10.3393 12.0877C10.3139 12.1818 10.3241 12.4281 10.3628 12.6534C10.3824 12.7677 10.3966 12.863 10.3942 12.8652C10.3886 12.8709 10.3126 12.7331 10.2835 12.6644C10.2419 12.5663 10.1781 12.3546 10.1225 12.1305C10.0925 12.0097 10.058 11.8789 10.0457 11.8396C10.0335 11.8004 10.0207 11.7549 10.0173 11.7386C10.0058 11.6827 9.98125 11.6619 9.92916 11.6641C9.82057 11.6685 9.7922 11.7216 9.79422 11.9169C9.79737 12.2204 9.89631 12.5437 10.1296 13.0132C10.1808 13.116 10.2226 13.2041 10.2226 13.2088C10.2226 13.2252 10.1137 13.1104 10.0345 13.0104C9.99054 12.9548 9.89971 12.8291 9.83267 12.731C9.58651 12.371 9.54981 12.3329 9.44946 12.3329C9.39518 12.3329 9.3385 12.3654 9.32944 12.4017C9.32567 12.4169 9.32558 12.4478 9.32921 12.4705C9.34313 12.5568 9.57665 12.9451 9.77119 13.2054C9.90704 13.3871 10.1253 13.6485 10.165 13.677C10.2188 13.7155 10.1956 13.7187 10.1317 13.6816C10.0058 13.6085 9.89751 13.5158 9.64292 13.2633C9.37619 12.9986 9.37604 12.9985 9.3242 12.9987C9.26805 12.9989 9.22649 13.0239 9.21449 13.0645C9.20121 13.1095 9.40206 13.38 9.6122 13.6003C9.7589 13.7541 10.0411 14.0144 10.137 14.0844C10.2154 14.1416 10.2176 14.1632 10.1451 14.1632C10.0841 14.1632 10.0026 14.1316 9.89571 14.0664C9.7242 13.9617 9.63226 13.9315 9.62296 13.9769C9.61541 14.0137 9.68183 14.1274 9.74409 14.184C9.93137 14.3546 10.1071 14.4562 10.5622 14.657C10.6029 14.675 10.6337 14.6923 10.6306 14.6954C10.6115 14.7146 10.4991 14.719 10.3216 14.7075C10.2104 14.7002 10.1099 14.6981 10.0983 14.7025C10.0795 14.7099 10.0816 14.7156 10.1174 14.753C10.1948 14.8342 10.2733 14.8631 10.5191 14.9005C10.606 14.9137 10.7056 14.9328 10.7405 14.9428C10.8011 14.9603 10.8029 14.9619 10.7795 14.9785C10.7515 14.9982 10.6021 15.0368 10.5059 15.0491C10.4381 15.0577 10.3996 15.0722 10.3996 15.0892C10.3996 15.1147 10.5373 15.1551 10.7242 15.1847C10.8346 15.2022 10.9242 15.2215 10.9233 15.2277C10.9217 15.2382 10.8985 15.2466 10.7221 15.3013C10.6852 15.3127 10.6531 15.3279 10.6509 15.335C10.642 15.3638 10.8149 15.4264 11.0007 15.4618C11.1019 15.4811 11.1927 15.4998 11.2025 15.5032C11.2121 15.5068 11.1667 15.5267 11.1014 15.5477C10.9228 15.605 10.9239 15.6031 11.045 15.6488C11.1024 15.6704 11.2661 15.7387 11.409 15.8005C11.8964 16.0113 12.1291 16.0901 12.4181 16.1422C12.6316 16.1807 12.6299 16.1804 12.6839 16.1813C12.7216 16.1819 12.7098 16.1762 12.6249 16.153ZM14.7953 14.8467C14.8692 14.5761 14.9228 14.3382 14.9293 14.2519C14.9347 14.1812 14.9317 14.1604 14.9098 14.1172C14.8613 14.0213 14.7216 13.9939 14.623 14.0608C14.533 14.1218 14.5283 14.2231 14.6015 14.5198C14.6845 14.8555 14.7357 15.0333 14.7447 15.0167C14.7494 15.0082 14.7722 14.9316 14.7953 14.8467ZM14.153 14.6951C14.0829 14.8406 14.0232 14.9596 14.0203 14.9596C14.0052 14.9596 13.9726 14.3975 13.9783 14.2346C13.9846 14.0546 14.0199 13.9934 14.1286 13.9733C14.1929 13.9614 14.2789 13.9869 14.3222 14.0304C14.3528 14.0611 14.3594 14.0783 14.3636 14.1371C14.3699 14.2252 14.3347 14.3184 14.153 14.6951ZM15.4865 14.6921C15.4943 14.5679 15.5009 14.3879 15.5013 14.292C15.5021 14.1298 15.5002 14.114 15.4741 14.0672C15.4349 13.9965 15.3976 13.9721 15.326 13.9705C15.2462 13.9687 15.1608 14.0113 15.1304 14.0682C15.0836 14.1556 15.115 14.2549 15.3314 14.7019C15.4211 14.8872 15.4591 14.9551 15.4646 14.9396C15.4689 14.9277 15.4788 14.8164 15.4865 14.6921ZM13.5617 14.4379C13.7811 14.1428 13.8231 14.0711 13.8231 13.9916C13.8231 13.918 13.7981 13.8732 13.7374 13.8377C13.6631 13.7943 13.6111 13.7881 13.5498 13.8155C13.4518 13.8591 13.4205 13.9608 13.3569 14.4426C13.3405 14.5668 13.3246 14.6868 13.3216 14.7094L13.3162 14.7503L13.3444 14.7213C13.36 14.7052 13.4578 14.5777 13.5617 14.4379ZM16.1373 14.5356C16.097 14.2259 16.0536 13.9826 16.0279 13.9223C15.998 13.852 15.9515 13.8114 15.8885 13.8007C15.8489 13.794 15.8283 13.7985 15.7731 13.8263C15.6477 13.8895 15.6232 13.9737 15.6918 14.1062C15.7517 14.222 16.1498 14.7598 16.1577 14.7356C16.1599 14.7291 16.1507 14.6391 16.1373 14.5356ZM16.7212 14.1543C16.7692 14.2965 16.8073 14.4127 16.806 14.4125C16.7987 14.4115 16.5464 14.1883 16.426 14.0765C16.1753 13.8436 16.1296 13.7746 16.1595 13.6742C16.1847 13.5893 16.3131 13.5093 16.3931 13.5288C16.5033 13.5557 16.5494 13.6433 16.7212 14.1543ZM12.9297 14.1895C13.1835 13.9633 13.2867 13.8577 13.3111 13.7987C13.3525 13.6988 13.3134 13.6056 13.2074 13.5524C13.1368 13.517 13.1173 13.515 13.0642 13.5376C12.9851 13.5712 12.955 13.6178 12.8707 13.8364C12.8331 13.9336 12.678 14.3857 12.678 14.3979C12.678 14.4113 12.7157 14.3802 12.9297 14.1895ZM17.3276 13.8691C17.3488 13.9066 17.3618 13.9371 17.3564 13.9366C17.3451 13.9356 17.0053 13.7376 16.8379 13.6343C16.5802 13.4753 16.53 13.36 16.661 13.2281C16.7172 13.1715 16.7528 13.1589 16.8252 13.1699C16.9238 13.1847 17.0093 13.3037 17.3276 13.8691ZM12.4183 13.7677C12.8135 13.5356 12.8905 13.47 12.8905 13.3656C12.8905 13.3082 12.8389 13.2298 12.7774 13.1934C12.7341 13.1678 12.7139 13.1631 12.6706 13.168C12.5986 13.1762 12.5458 13.2211 12.464 13.3442C12.3887 13.4575 12.1232 13.9122 12.1232 13.9279C12.1232 13.9409 12.126 13.9393 12.4183 13.7677ZM14.9656 13.6874C14.8587 13.6989 14.6418 13.7014 14.5609 13.6921C14.1934 13.6499 13.9569 13.5834 13.6821 13.4445C13.1015 13.1513 12.6859 12.6696 12.4824 12.0537C12.2964 11.4908 12.3209 10.9051 12.5538 10.3498C12.8353 9.67874 13.4431 9.15577 14.1507 8.97607C14.5952 8.86327 15.0804 8.88265 15.5096 9.03038C16.4202 9.34368 17.0585 10.1842 17.1148 11.1441C17.1429 11.6237 17.0392 12.0782 16.8081 12.4881C16.4308 13.1575 15.7453 13.6037 14.9656 13.6874ZM11.9306 13.2854C12.3764 13.1309 12.456 13.0937 12.5013 13.0188C12.571 12.9039 12.4691 12.7211 12.3363 12.723C12.3104 12.7233 12.271 12.7324 12.2487 12.7429C12.2016 12.7654 11.9935 12.9774 11.8169 13.1827C11.7494 13.2611 11.6835 13.3373 11.6705 13.3521C11.6575 13.3668 11.6501 13.3788 11.6541 13.3788C11.658 13.3788 11.7824 13.3367 11.9306 13.2854ZM17.8116 13.358C17.7069 13.2218 17.357 12.835 17.2906 12.7822C17.2341 12.7371 17.1489 12.7124 17.0996 12.7265C17.018 12.7501 16.9413 12.8724 16.9548 12.957C16.9687 13.0424 17.0272 13.0895 17.211 13.1628C17.3326 13.2115 17.7971 13.3762 17.8174 13.378C17.8231 13.3784 17.8205 13.3694 17.8116 13.358ZM18.1613 12.7252C18.1394 12.6896 17.605 12.2934 17.5238 12.2525C17.4195 12.2001 17.3453 12.2083 17.2836 12.2792C17.1861 12.3909 17.2109 12.5276 17.3409 12.5939C17.3988 12.6235 17.6828 12.6745 18.0314 12.7177C18.1028 12.7266 18.1628 12.7346 18.1648 12.7354C18.1669 12.7363 18.1653 12.7316 18.1613 12.7252ZM11.6982 12.6822C12.0882 12.6279 12.1816 12.5991 12.2306 12.5183C12.277 12.4418 12.2443 12.3027 12.1669 12.2472C12.1184 12.2124 12.029 12.212 11.9639 12.2464C11.8722 12.2946 11.3205 12.7055 11.3205 12.7256C11.3205 12.7335 11.3716 12.7276 11.6982 12.6822ZM11.9875 12.0406C12.0493 12.0082 12.0878 11.9504 12.0878 11.8898C12.0878 11.7247 11.9749 11.6369 11.8253 11.6854C11.7418 11.7125 11.4842 11.8296 11.2674 11.9391L11.0903 12.0286L11.2025 12.0384C11.4367 12.0584 11.6502 12.0689 11.7927 12.0672C11.9171 12.0657 11.9476 12.0615 11.9875 12.0406ZM18.2085 12.0426C17.9711 12.0622 17.5914 12.0728 17.5474 12.0611C17.4362 12.0313 17.3942 11.9796 17.395 11.8742C17.396 11.7462 17.4621 11.6737 17.577 11.6747C17.6597 11.6754 17.7487 11.7115 18.1082 11.8901L18.3856 12.028L18.2085 12.0426ZM11.9626 11.4591C11.9212 11.4863 11.8442 11.4972 11.7659 11.4869C11.6622 11.4732 11.0372 11.3112 11.0372 11.298C11.0372 11.2941 11.0597 11.2854 11.0874 11.2785C11.1149 11.2717 11.2385 11.2394 11.3618 11.2067C11.6725 11.1242 11.7511 11.1075 11.8294 11.1071C11.9575 11.1064 12.019 11.1611 12.0267 11.2822C12.032 11.3656 12.0093 11.4283 11.9626 11.4591ZM17.9311 11.4406C18.1273 11.3938 18.4387 11.3068 18.4387 11.2988C18.4387 11.2902 18.1178 11.2013 17.9016 11.15C17.6343 11.0867 17.5444 11.0938 17.4778 11.1839C17.4449 11.2284 17.4425 11.3611 17.4738 11.4091C17.5381 11.5079 17.6246 11.5139 17.9311 11.4406ZM11.9585 10.9185C12.0683 10.8878 12.1266 10.7186 12.0611 10.6208C12.0081 10.5416 11.9757 10.5322 11.7573 10.5327C11.55 10.5332 11.1079 10.5603 11.108 10.5725C11.1081 10.5901 11.6932 10.8669 11.8163 10.9076C11.8931 10.9331 11.9036 10.9338 11.9585 10.9185ZM17.754 10.875C17.6537 10.9164 17.5714 10.933 17.5203 10.9224C17.4752 10.9129 17.4165 10.8435 17.4008 10.7811C17.3808 10.7009 17.394 10.6399 17.4418 10.5919C17.4992 10.534 17.574 10.5213 17.8012 10.5308C18.0653 10.5417 18.3679 10.5648 18.3679 10.5738C18.3679 10.5841 17.8841 10.8213 17.754 10.875ZM17.4665 10.368C17.3884 10.3884 17.3771 10.3878 17.335 10.3616C17.1984 10.2766 17.1855 10.0913 17.3112 10.0194C17.3806 9.97968 17.7567 9.9111 18.0905 9.87722L18.1731 9.8689L18.0831 9.94093C17.7709 10.1912 17.5453 10.3474 17.4665 10.368ZM12.1404 10.3668C12.197 10.343 12.244 10.2668 12.2505 10.1887C12.2607 10.0636 12.1992 10.0077 12.0079 9.96838C11.8602 9.93808 11.3736 9.86997 11.3401 9.87497C11.322 9.8777 11.3589 9.91181 11.4864 10.0107C11.9404 10.3625 12.032 10.4124 12.1404 10.3668ZM17.2413 9.84846C17.2686 9.83515 17.3379 9.77501 17.3955 9.71463C17.5123 9.59233 17.8248 9.23671 17.8248 9.22637C17.8248 9.21841 17.3867 9.36805 17.2163 9.43425C17.0184 9.51103 16.9508 9.57034 16.9515 9.66638C16.9519 9.7195 16.9912 9.79355 17.0409 9.83479C17.0963 9.88067 17.1654 9.88542 17.2413 9.84846ZM12.432 9.84335C12.3814 9.87794 12.3028 9.8821 12.2448 9.85333C12.1982 9.83016 11.9924 9.6205 11.8144 9.41464C11.6618 9.23814 11.6404 9.21176 11.6569 9.22079C11.6634 9.22435 11.7536 9.25549 11.8575 9.28996C12.1048 9.37185 12.3319 9.45862 12.4089 9.50033C12.4848 9.54146 12.5246 9.5972 12.5246 9.66257C12.5246 9.72806 12.4836 9.80805 12.432 9.84335ZM16.8911 9.40014C16.8043 9.456 16.7225 9.44055 16.6412 9.35319C16.5665 9.27308 16.5759 9.17539 16.6668 9.08815C16.6975 9.05867 16.7754 9.00198 16.8399 8.96204C17.0138 8.85448 17.3545 8.65837 17.3594 8.66312C17.3662 8.67013 17.1199 9.09611 17.0277 9.23671C16.9662 9.33037 16.9275 9.37673 16.8911 9.40014ZM12.801 9.39111C12.8493 9.35402 12.8905 9.28354 12.8905 9.23802C12.8905 9.16445 12.8483 9.10776 12.7312 9.02349C12.6397 8.95764 12.1325 8.65872 12.1251 8.66621C12.1177 8.6737 12.3534 9.08541 12.4482 9.2303C12.5272 9.35117 12.5567 9.38421 12.6131 9.41488C12.6652 9.44305 12.7467 9.43283 12.801 9.39111ZM13.2068 9.04548C13.1342 9.08197 13.1004 9.08327 13.0415 9.0519C12.992 9.02563 12.9552 8.96894 12.8958 8.82714C12.8472 8.71102 12.6757 8.20708 12.6824 8.20018C12.6881 8.19448 12.7202 8.22169 12.9377 8.41638C13.1832 8.63602 13.2977 8.75476 13.315 8.80741C13.3477 8.90737 13.308 8.99473 13.2068 9.04548ZM16.4627 9.03442C16.5122 8.99639 16.5529 8.91676 16.6295 8.70781C16.7062 8.49898 16.8015 8.2085 16.7955 8.20232C16.7875 8.19436 16.3855 8.55496 16.2767 8.66776C16.1973 8.75 16.1714 8.78542 16.1604 8.82643C16.1409 8.89917 16.1597 8.95741 16.2184 9.00709C16.3071 9.08209 16.3888 9.09124 16.4627 9.03442ZM13.7321 8.76534C13.8211 8.71993 13.8496 8.60583 13.7981 8.50231C13.752 8.40984 13.3338 7.84029 13.322 7.85396C13.3138 7.86347 13.3886 8.41044 13.4169 8.54736C13.4263 8.59312 13.4478 8.6592 13.4647 8.69426C13.5159 8.8004 13.6128 8.82619 13.7321 8.76534ZM15.9572 8.77164C15.8552 8.83784 15.6756 8.76177 15.6567 8.64446C15.6408 8.54593 15.6918 8.45691 15.9884 8.06469C16.0788 7.945 16.1548 7.85336 16.1573 7.86085C16.1675 7.89164 16.0732 8.52917 16.0426 8.6365C16.0265 8.69272 15.9902 8.75024 15.9572 8.77164ZM14.2613 8.60785C14.1987 8.63424 14.1052 8.62949 14.0581 8.59751C13.9971 8.55615 13.978 8.49126 13.9771 8.3245C13.9764 8.17784 13.9964 7.80915 14.011 7.69755L14.0195 7.63218L14.1396 7.8788C14.3378 8.28564 14.3602 8.34293 14.3602 8.44241C14.3602 8.51693 14.3564 8.53155 14.3307 8.55936C14.3144 8.57671 14.2832 8.59858 14.2613 8.60785ZM15.4213 8.59977C15.4882 8.54676 15.5024 8.49447 15.5015 8.30418C15.5006 8.11057 15.4767 7.69137 15.4646 7.65797C15.459 7.6424 15.4224 7.70741 15.3342 7.88973C15.1772 8.21456 15.11 8.37953 15.1099 8.44039C15.1097 8.55282 15.1902 8.62414 15.3177 8.62438C15.3733 8.62461 15.3971 8.61891 15.4213 8.59977ZM14.857 8.54035C14.9151 8.50481 14.9376 8.43991 14.9287 8.33366C14.9215 8.24844 14.7855 7.68257 14.7527 7.60175C14.7371 7.56312 14.7371 7.56324 14.6979 7.7042C14.6343 7.933 14.5704 8.19638 14.5546 8.29479C14.5428 8.36848 14.5429 8.39712 14.555 8.44051C14.5713 8.49946 14.6192 8.5489 14.6709 8.56031C14.6882 8.56412 14.7077 8.56911 14.7143 8.57149C14.7384 8.58016 14.8216 8.56198 14.857 8.54035Z" fill="#FFCF2B"/>
</svg>
