<svg width="18" height="18" viewBox="0 0 18 18" fill="none" xmlns="http://www.w3.org/2000/svg">
<path d="M4.28735 10.9297L3.69802 13.1297L1.54402 13.1753C0.90029 11.9813 0.535156 10.6153 0.535156 9.16359C0.535156 7.75983 0.876548 6.43606 1.48169 5.27046H1.48215L3.39982 5.62203L4.23987 7.52819C4.06405 8.04077 3.96822 8.59102 3.96822 9.16359C3.96828 9.785 4.08085 10.3804 4.28735 10.9297Z" fill="#FF9500"/>
<path d="M17.3179 7.58216C17.4152 8.09424 17.4658 8.6231 17.4658 9.16359C17.4658 9.76965 17.4021 10.3608 17.2807 10.9311C16.8686 12.8716 15.7919 14.5661 14.3002 15.7652L14.2997 15.7647L11.8843 15.6415L11.5425 13.5074C12.5323 12.927 13.3058 12.0186 13.7133 10.9311H9.18661V7.58216H17.3179Z" fill="#FF9500"/>
<path d="M14.2997 15.7647L14.3002 15.7652C12.8495 16.9312 11.0066 17.6289 9.0005 17.6289C5.77669 17.6289 2.97384 15.827 1.54402 13.1753L4.28735 10.9297C5.00225 12.8376 6.84277 14.1958 9.0005 14.1958C9.92795 14.1958 10.7968 13.9451 11.5424 13.5074L14.2997 15.7647Z" fill="#FF9500"/>
<path d="M14.4039 2.64712L11.6615 4.89229C10.8899 4.40997 9.97772 4.13134 9.0005 4.13134C6.79392 4.13134 4.91898 5.55183 4.2399 7.52819L1.48215 5.27046H1.48169C2.89057 2.5541 5.72878 0.698242 9.0005 0.698242C11.0545 0.698242 12.9378 1.4299 14.4039 2.64712Z" fill="#FF9500"/>
</svg>
