<svg width="23" height="18" viewBox="0 0 23 18" fill="none" xmlns="http://www.w3.org/2000/svg">
<path d="M21.9065 7.66301C19.6621 4.16742 15.4814 2 11 2C6.51859 2 2.33788 4.16742 0.0935047 7.66301C-0.0311682 7.86785 -0.0311682 8.11896 0.0935047 8.3238C2.33788 11.826 6.51859 14 11 14C15.4814 14 19.6621 11.826 21.9065 8.3238C22.0312 8.11896 22.0312 7.86785 21.9065 7.66301ZM11 12.13C8.46957 12.13 6.4159 10.2798 6.4159 8.00002C6.4159 5.72027 8.46957 3.87006 11 3.87006C13.5304 3.87006 15.5841 5.72027 15.5841 8.00002C15.5841 10.2798 13.5304 12.13 11 12.13Z" fill="#D3D9DD"/>
<path d="M11 10.8084C12.7216 10.8084 14.1172 9.55104 14.1172 8.00002C14.1172 6.449 12.7216 5.19165 11 5.19165C9.27842 5.19165 7.88281 6.449 7.88281 8.00002C7.88281 9.55104 9.27842 10.8084 11 10.8084Z" fill="#D3D9DD"/>
<line x1="21.6247" y1="0.780869" x2="1.62469" y2="16.7809" stroke="#D3D9DD" stroke-width="2"/>
</svg>
