<svg width="41" height="42" viewBox="0 0 41 42" fill="none" xmlns="http://www.w3.org/2000/svg">
<rect x="0.367822" y="1.2311" width="39.7248" height="39.7248" rx="19.8624" stroke="url(#paint0_linear_2020_3)" stroke-width="0.735644"/>
<path d="M14.7662 28.4272C14.4729 28.4272 14.3263 28.2997 14.3263 28.0447C14.3263 27.9682 14.3518 27.8981 14.4028 27.8343L23.8323 15.4019C23.9215 15.2872 24.0108 15.1979 24.1 15.1342C24.2021 15.0704 24.3423 15.0385 24.5208 15.0385H26.204C26.4973 15.0385 26.6439 15.166 26.6439 15.4211C26.6439 15.4976 26.6184 15.5677 26.5674 15.6315L17.1188 28.0638C17.0295 28.1786 16.9403 28.2679 16.851 28.3316C16.7617 28.3954 16.6279 28.4272 16.4493 28.4272H14.7662ZM24.7695 28.5229C23.8897 28.5229 23.1756 28.2934 22.6273 27.8343C22.0917 27.3753 21.7985 26.7632 21.7475 25.9981C21.722 25.6666 21.7092 25.3733 21.7092 25.1183C21.722 24.8505 21.7347 24.5381 21.7475 24.1811C21.7985 23.4033 22.079 22.7849 22.589 22.3258C23.1118 21.8668 23.8386 21.6372 24.7695 21.6372C25.7003 21.6372 26.4208 21.8668 26.9308 22.3258C27.4536 22.7849 27.7341 23.4033 27.7724 24.1811C27.7979 24.5381 27.8106 24.8505 27.8106 25.1183C27.8106 25.3733 27.7979 25.6666 27.7724 25.9981C27.7341 26.7632 27.4409 27.3753 26.8926 27.8343C26.357 28.2934 25.6493 28.5229 24.7695 28.5229ZM24.7695 26.6485C24.9352 26.6485 25.0628 26.6166 25.152 26.5528C25.2413 26.4763 25.3114 26.3807 25.3624 26.2659C25.4134 26.1384 25.4389 26.0109 25.4389 25.8834C25.4644 25.6156 25.4772 25.3478 25.4772 25.0801C25.4772 24.8123 25.4644 24.5509 25.4389 24.2959C25.4262 24.0918 25.3688 23.9133 25.2668 23.7603C25.1648 23.6073 24.999 23.5308 24.7695 23.5308C24.5272 23.5308 24.3551 23.6073 24.2531 23.7603C24.151 23.9133 24.0937 24.0918 24.0809 24.2959C24.0682 24.5509 24.0618 24.8123 24.0618 25.0801C24.0618 25.3478 24.0682 25.6156 24.0809 25.8834C24.0937 26.0109 24.1192 26.1384 24.1574 26.2659C24.2084 26.3807 24.2786 26.4763 24.3678 26.5528C24.4698 26.6166 24.6037 26.6485 24.7695 26.6485ZM16.2581 21.8094C15.3782 21.8094 14.6642 21.5862 14.1159 21.14C13.5803 20.6809 13.2871 20.0689 13.2361 19.3038C13.2105 18.9723 13.1978 18.679 13.1978 18.424C13.2105 18.1562 13.2233 17.8438 13.2361 17.4867C13.2871 16.7089 13.5676 16.0905 14.0776 15.6315C14.6004 15.1724 15.3272 14.9429 16.2581 14.9429C17.1889 14.9429 17.9094 15.1724 18.4194 15.6315C18.9422 16.0905 19.2291 16.7089 19.2801 17.4867C19.3056 17.8438 19.3184 18.1562 19.3184 18.424C19.3184 18.679 19.3056 18.9723 19.2801 19.3038C19.2291 20.0689 18.9294 20.6809 18.3811 21.14C17.8456 21.5862 17.1379 21.8094 16.2581 21.8094ZM16.2581 19.9541C16.4238 19.9541 16.5514 19.9222 16.6406 19.8585C16.7299 19.782 16.8 19.6863 16.851 19.5716C16.902 19.444 16.9275 19.3165 16.9275 19.189C16.953 18.9213 16.9658 18.6535 16.9658 18.3857C16.9658 18.1179 16.953 17.8565 16.9275 17.6015C16.9148 17.3975 16.8574 17.219 16.7554 17.066C16.6661 16.9129 16.5003 16.8364 16.2581 16.8364C16.0158 16.8364 15.8437 16.9129 15.7417 17.066C15.6396 17.219 15.5823 17.3975 15.5695 17.6015C15.5568 17.8565 15.5504 18.1179 15.5504 18.3857C15.5504 18.6535 15.5568 18.9213 15.5695 19.189C15.5823 19.3165 15.6078 19.444 15.646 19.5716C15.697 19.6863 15.7735 19.782 15.8755 19.8585C15.9776 19.9222 16.1051 19.9541 16.2581 19.9541Z" fill="url(#paint1_linear_2020_3)"/>
<defs>
<linearGradient id="paint0_linear_2020_3" x1="20.2302" y1="0.863281" x2="20.2302" y2="41.3237" gradientUnits="userSpaceOnUse">
<stop stop-color="#EFC632"/>
<stop offset="1" stop-color="#EF7932"/>
</linearGradient>
<linearGradient id="paint1_linear_2020_3" x1="75.3758" y1="33.9221" x2="75.3758" y2="10.4272" gradientUnits="userSpaceOnUse">
<stop stop-color="#EB5A29"/>
<stop offset="0.47" stop-color="#F08335"/>
<stop offset="0.72" stop-color="#F5AA40"/>
</linearGradient>
</defs>
</svg>
