<svg width="41" height="41" viewBox="0 0 41 41" fill="none" xmlns="http://www.w3.org/2000/svg">
<rect x="0.364508" y="0.364508" width="39.3669" height="39.3669" rx="19.6835" stroke="url(#paint0_linear_2020_2)" stroke-width="0.729017"/>
<path d="M11.4787 25.9355C11.3611 25.9355 11.2649 25.8981 11.19 25.8233C11.1152 25.7484 11.0777 25.6522 11.0777 25.5346V15.1096C11.0777 14.992 11.1152 14.8958 11.19 14.821C11.2649 14.7461 11.3611 14.7087 11.4787 14.7087H18.6318C18.7494 14.7087 18.8457 14.7461 18.9205 14.821C18.9954 14.8958 19.0328 14.992 19.0328 15.1096V16.4729C19.0328 16.5905 18.9954 16.6868 18.9205 16.7616C18.8457 16.8364 18.7494 16.8739 18.6318 16.8739H13.5797V19.5844H18.3111C18.4287 19.5844 18.5249 19.6218 18.5997 19.6966C18.6746 19.7715 18.712 19.8677 18.712 19.9853V21.3486C18.712 21.4555 18.6746 21.5464 18.5997 21.6212C18.5249 21.6961 18.4287 21.7335 18.3111 21.7335H13.5797V25.5346C13.5797 25.6522 13.5423 25.7484 13.4675 25.8233C13.3926 25.8981 13.2964 25.9355 13.1788 25.9355H11.4787ZM24.8301 26.0959C23.8037 26.0959 22.943 25.9462 22.248 25.6469C21.5637 25.3475 21.0451 24.9572 20.6922 24.4761C20.3394 23.9949 20.1523 23.4817 20.1309 22.9364C20.1309 22.8508 20.163 22.776 20.2271 22.7118C20.2913 22.637 20.3715 22.5996 20.4677 22.5996H22.1838C22.3228 22.5996 22.4297 22.6316 22.5046 22.6958C22.5794 22.7493 22.6489 22.8188 22.7131 22.9043C22.7879 23.0861 22.9055 23.2625 23.0659 23.4336C23.237 23.6046 23.4669 23.749 23.7556 23.8666C24.0443 23.9735 24.4025 24.027 24.8301 24.027C25.5251 24.027 26.0437 23.9147 26.3859 23.6902C26.7387 23.4656 26.9151 23.1609 26.9151 22.776C26.9151 22.498 26.8189 22.2735 26.6264 22.1024C26.4447 21.9313 26.1506 21.7763 25.7443 21.6373C25.3487 21.4983 24.8195 21.3486 24.1565 21.1882C23.3546 21.0171 22.6703 20.7979 22.1036 20.5306C21.5476 20.2526 21.1253 19.8998 20.8366 19.4721C20.5586 19.0337 20.4196 18.4937 20.4196 17.8522C20.4196 17.2107 20.596 16.644 20.9489 16.1521C21.3017 15.6496 21.7989 15.2593 22.4404 14.9813C23.082 14.6926 23.8465 14.5483 24.7339 14.5483C25.4503 14.5483 26.0811 14.6445 26.6264 14.837C27.1824 15.0295 27.6422 15.2807 28.0057 15.5908C28.38 15.9009 28.6633 16.2323 28.8558 16.5852C29.0482 16.938 29.1498 17.2802 29.1605 17.6116C29.1605 17.6972 29.1284 17.7774 29.0643 17.8522C29.0001 17.9164 28.9199 17.9484 28.8237 17.9484H27.0274C26.9205 17.9484 26.8243 17.9271 26.7387 17.8843C26.6532 17.8415 26.5837 17.7667 26.5302 17.6597C26.4661 17.3817 26.2736 17.1412 25.9528 16.938C25.6428 16.7242 25.2365 16.6173 24.7339 16.6173C24.21 16.6173 23.793 16.7135 23.4829 16.9059C23.1835 17.0984 23.0339 17.3924 23.0339 17.7881C23.0339 18.0447 23.1087 18.2639 23.2584 18.4456C23.4188 18.6167 23.6807 18.7717 24.0443 18.9107C24.4185 19.039 24.9103 19.1834 25.5198 19.3438C26.4607 19.5362 27.2252 19.7661 27.8133 20.0334C28.4014 20.3007 28.8344 20.6482 29.1124 21.0759C29.3904 21.4929 29.5294 22.0222 29.5294 22.6637C29.5294 23.3801 29.3262 23.9949 28.9199 24.5081C28.5243 25.0214 27.9737 25.417 27.268 25.695C26.573 25.9623 25.7604 26.0959 24.8301 26.0959Z" fill="url(#paint1_linear_2020_2)"/>
<defs>
<linearGradient id="paint0_linear_2020_2" x1="20.048" y1="0" x2="20.048" y2="40.0959" gradientUnits="userSpaceOnUse">
<stop stop-color="#EFC632"/>
<stop offset="1" stop-color="#EF7932"/>
</linearGradient>
<linearGradient id="paint1_linear_2020_2" x1="91.9943" y1="30.3443" x2="91.9943" y2="10.9355" gradientUnits="userSpaceOnUse">
<stop stop-color="#EB5A29"/>
<stop offset="0.47" stop-color="#F08335"/>
<stop offset="0.72" stop-color="#F5AA40"/>
</linearGradient>
</defs>
</svg>
