<svg width="26" height="23" viewBox="0 0 26 23" fill="none" xmlns="http://www.w3.org/2000/svg">
<path d="M13.9142 16.2133C13.6161 16.5115 13.6161 16.9941 13.9142 17.2914C14.2124 17.5896 14.695 17.5896 14.9923 17.2914L20.2525 12.0305C20.4111 11.8719 20.479 11.6607 20.4683 11.4533C20.479 11.2451 20.4111 11.0347 20.2525 10.8761L14.9923 5.61593C14.695 5.31781 14.2116 5.31781 13.9142 5.61593C13.6161 5.91406 13.6161 6.39669 13.9142 6.69402L17.9118 10.6916H1.45338C1.0325 10.6916 0.690918 11.0332 0.690918 11.4541C0.690918 11.8749 1.0325 12.2165 1.45338 12.2165H17.9118L13.9142 16.2133ZM22.0397 0.779663H6.79057C5.10631 0.779663 3.74075 2.14523 3.74075 3.82949V6.87932H5.26566V3.82949C5.26566 2.98774 5.94806 2.30458 6.79057 2.30458H22.0397C22.8822 2.30458 23.5646 2.98774 23.5646 3.82949V19.0786C23.5646 19.9204 22.8822 20.6035 22.0397 20.6035H6.79057C5.94806 20.6035 5.26566 19.9211 5.26566 19.0786V16.0288H3.74075V19.0786C3.74075 20.7629 5.10631 22.1285 6.79057 22.1285H22.0397C23.724 22.1285 25.0895 20.7629 25.0895 19.0786V3.82949C25.0895 2.14523 23.724 0.779663 22.0397 0.779663Z" fill="#F6F6F6"/>
</svg>
