<svg width="16" height="16" viewBox="0 0 16 16" fill="none" xmlns="http://www.w3.org/2000/svg">
<path fill-rule="evenodd" clip-rule="evenodd" d="M15.7071 14.0729C15.6009 14.1788 15.4727 14.3142 15.3369 14.4575C14.9979 14.8172 14.5744 15.2645 14.309 15.4458C12.9125 16.4001 11.0442 15.9435 9.72269 15.3929C7.97937 14.6665 6.08136 13.3276 4.37716 11.6232C2.67136 9.91864 1.33261 8.02004 0.606236 6.27771C0.0562613 4.9559 -0.401311 3.08723 0.553114 1.69042C0.734355 1.42481 1.18262 1.00199 1.54191 0.662345C1.68566 0.526913 1.82002 0.39895 1.92627 0.293049C2.11489 0.105363 2.37016 0 2.63625 0C2.90234 0 3.15761 0.105363 3.34624 0.293049L5.91574 2.86181C6.10333 3.05042 6.20862 3.30562 6.20862 3.57163C6.20862 3.83765 6.10333 4.09284 5.91574 4.28146L5.21578 4.98002C4.98201 5.21208 4.82942 5.51341 4.78073 5.83918C4.73203 6.16495 4.78982 6.49773 4.94551 6.788C5.90827 8.60512 7.39459 10.0912 9.21187 11.0537C9.50208 11.2093 9.8348 11.267 10.1605 11.2182C10.4861 11.1694 10.7874 11.0168 11.0192 10.7829L11.7175 10.0844C11.9061 9.89666 12.1614 9.7913 12.4275 9.7913C12.6936 9.7913 12.9488 9.89666 13.1374 10.0844L15.7071 12.6535C15.8947 12.8421 16 13.0972 16 13.3632C16 13.6292 15.8947 13.8843 15.7071 14.0729Z" fill="#282B37"/>
</svg>
